<?xml version="1.0" encoding="UTF-8" standalone="yes"?>
<!DOCTYPE svg PUBLIC "-//W3C//DTD SVG 1.1//EN" "http://www.w3.org/Graphics/SVG/1.1/DTD/svg11.dtd">

<svg width="1574" height="499" viewBox="0 0 1574 499" xmlns="http://www.w3.org/2000/svg" xmlns:xlink="http://www.w3.org/1999/xlink" version="1.1" baseProfile="full">
    <g transform="scale(1,-1) translate(0,-499)">
        <path d="M 1505.250000 271.559899 L 1.000000 271.559899 L 1.000000 0.999999 L 1505.250000 0.999999 Z M 1284.244200 177.540999 L 1283.372400 177.602499 L 1282.537600 177.725599 L 1281.739700 177.910199 L 1280.978600 178.156299 L 1280.254600 178.463899 L 1279.567400 178.832999 L 1278.917100 179.263699 L 1278.605800 179.502099 L 1278.308700 179.756599 L 1277.772100 180.315999 L 1277.312000 180.942599 L 1276.928700 181.636399 L 1276.622000 182.397399 L 1276.392000 183.225599 L 1276.238700 184.120999 L 1276.162000 185.083699 L 1276.152400 185.590199 L 1276.162000 186.111299 L 1276.238700 187.100499 L 1276.392000 188.018599 L 1276.622000 188.865699 L 1276.928700 189.641899 L 1277.312000 190.346999 L 1277.772100 190.981199 L 1278.308700 191.544399 L 1278.605800 191.799399 L 1278.917100 192.037799 L 1279.567400 192.468399 L 1280.254600 192.837599 L 1280.978600 193.145199 L 1281.739700 193.391299 L 1282.537600 193.575899 L 1283.372400 193.698899 L 1284.244200 193.760499 L 1284.693900 193.768099 L 1285.179800 193.759599 L 1286.114000 193.691499 L 1286.998100 193.555199 L 1287.832000 193.350699 L 1288.615700 193.078099 L 1289.349200 192.737399 L 1290.032600 192.328499 L 1290.665900 191.851399 L 1290.963700 191.587299 L 1291.246100 191.308399 L 1291.756300 190.711999 L 1292.193600 190.064599 L 1292.558000 189.366099 L 1292.849500 188.616399 L 1293.068100 187.815699 L 1293.213900 186.963799 L 1293.286800 186.060799 L 1293.295900 185.590199 L 1293.286700 185.134199 L 1293.212800 184.257699 L 1293.065200 183.428499 L 1292.843700 182.646699 L 1292.548400 181.912199 L 1292.179200 181.224999 L 1291.736300 180.585199 L 1291.219500 179.992599 L 1290.933400 179.714099 L 1290.632100 179.449999 L 1289.994200 178.972999 L 1289.308900 178.564099 L 1288.576300 178.223399 L 1287.796400 177.950799 L 1286.969100 177.746299 L 1286.094500 177.609999 L 1285.172600 177.541899 L 1284.693900 177.533299 Z M 1259.681600 177.541599 L 1258.762500 177.607899 L 1257.893600 177.740399 L 1257.074800 177.939199 L 1256.306300 178.204199 L 1255.587900 178.535499 L 1254.919600 178.932999 L 1254.301500 179.396799 L 1254.011300 179.653599 L 1253.736200 179.925199 L 1253.239300 180.508299 L 1252.813300 181.144299 L 1252.458400 181.833399 L 1252.174400 182.575499 L 1251.961500 183.370599 L 1251.819500 184.218599 L 1251.748500 185.119699 L 1251.739600 185.590199 L 1251.748500 186.075299 L 1251.819500 187.002899 L 1251.961500 187.873699 L 1252.174400 188.687699 L 1252.458400 189.444899 L 1252.813300 190.145299 L 1253.239300 190.788999 L 1253.736200 191.375799 L 1254.011300 191.647899 L 1254.301500 191.904699 L 1254.919600 192.368499 L 1255.587900 192.765999 L 1256.306300 193.097299 L 1257.074800 193.362299 L 1257.893600 193.561099 L 1258.762500 193.693599 L 1259.681600 193.759899 L 1260.159900 193.768099 L 1260.652900 193.759399 L 1261.598500 193.689299 L 1262.490200 193.549299 L 1263.327800 193.339099 L 1264.111600 193.058999 L 1264.841300 192.708699 L 1265.517100 192.288499 L 1266.139000 191.798199 L 1266.429700 191.526799 L 1266.704800 191.240899 L 1267.201700 190.635099 L 1267.627700 189.983899 L 1267.982600 189.287299 L 1268.266600 188.545199 L 1268.479500 187.757699 L 1268.621500 186.924799 L 1268.692500 186.046399 L 1268.701400 185.590199 L 1268.692400 185.141399 L 1268.620400 184.277199 L 1268.476600 183.457499 L 1268.260800 182.682299 L 1267.973000 181.951599 L 1267.613300 181.265399 L 1267.181700 180.623599 L 1266.678200 180.026399 L 1266.399400 179.744399 L 1266.105300 179.476699 L 1265.478700 178.992999 L 1264.801000 178.578399 L 1264.072200 178.232899 L 1263.292200 177.956499 L 1262.461200 177.749299 L 1261.579000 177.611099 L 1260.645700 177.541999 L 1260.159900 177.533299 Z M 203.599400 177.540999 L 202.727600 177.602499 L 201.892800 177.725599 L 201.094900 177.910199 L 200.333800 178.156299 L 199.609800 178.463899 L 198.922600 178.832999 L 198.272300 179.263699 L 197.961000 179.502099 L 197.663900 179.756599 L 197.127300 180.315999 L 196.667200 180.942599 L 196.283900 181.636399 L 195.977200 182.397399 L 195.747200 183.225599 L 195.593900 184.120999 L 195.517200 185.083699 L 195.507600 185.590199 L 195.517200 186.111299 L 195.593900 187.100499 L 195.747200 188.018599 L 195.977200 188.865699 L 196.283900 189.641899 L 196.667200 190.346999 L 197.127300 190.981199 L 197.663900 191.544399 L 197.961000 191.799399 L 198.272300 192.037799 L 198.922600 192.468399 L 199.609800 192.837599 L 200.333800 193.145199 L 201.094900 193.391299 L 201.892800 193.575899 L 202.727600 193.698899 L 203.599400 193.760499 L 204.049100 193.768099 L 204.535000 193.759599 L 205.469200 193.691499 L 206.353300 193.555199 L 207.187200 193.350699 L 207.970900 193.078099 L 208.704400 192.737399 L 209.387800 192.328499 L 210.021100 191.851399 L 210.318900 191.587299 L 210.601300 191.308399 L 211.111500 190.711999 L 211.548800 190.064599 L 211.913200 189.366099 L 212.204700 188.616399 L 212.423300 187.815699 L 212.569100 186.963799 L 212.642000 186.060799 L 212.651100 185.590199 L 212.641900 185.134199 L 212.568000 184.257699 L 212.420400 183.428499 L 212.198900 182.646699 L 211.903600 181.912199 L 211.534400 181.224999 L 211.091500 180.585199 L 210.574700 179.992599 L 210.288600 179.714099 L 209.987300 179.449999 L 209.349400 178.972999 L 208.664100 178.564099 L 207.931500 178.223399 L 207.151600 177.950799 L 206.324300 177.746299 L 205.449700 177.609999 L 204.527800 177.541899 L 204.049100 177.533299 Z M 179.036800 177.541599 L 178.117700 177.607899 L 177.248800 177.740399 L 176.430000 177.939199 L 175.661500 178.204199 L 174.943100 178.535499 L 174.274800 178.932999 L 173.656700 179.396799 L 173.366500 179.653599 L 173.091400 179.925199 L 172.594500 180.508299 L 172.168500 181.144299 L 171.813600 181.833399 L 171.529600 182.575499 L 171.316700 183.370599 L 171.174700 184.218599 L 171.103700 185.119699 L 171.094800 185.590199 L 171.103700 186.075299 L 171.174700 187.002899 L 171.316700 187.873699 L 171.529600 188.687699 L 171.813600 189.444899 L 172.168500 190.145299 L 172.594500 190.788999 L 173.091400 191.375799 L 173.366500 191.647899 L 173.656700 191.904699 L 174.274800 192.368499 L 174.943100 192.765999 L 175.661500 193.097299 L 176.430000 193.362299 L 177.248800 193.561099 L 178.117700 193.693599 L 179.036800 193.759899 L 179.515100 193.768099 L 180.008200 193.759399 L 180.953700 193.689299 L 181.845400 193.549299 L 182.683000 193.339099 L 183.466800 193.058999 L 184.196500 192.708699 L 184.872300 192.288499 L 185.494200 191.798199 L 185.784900 191.526799 L 186.060000 191.240899 L 186.556900 190.635099 L 186.982900 189.983899 L 187.337800 189.287299 L 187.621800 188.545199 L 187.834700 187.757699 L 187.976700 186.924799 L 188.047700 186.046399 L 188.056600 185.590199 L 188.047600 185.141399 L 187.975600 184.277199 L 187.831800 183.457499 L 187.616000 182.682299 L 187.328200 181.951599 L 186.968500 181.265399 L 186.536900 180.623599 L 186.033400 180.026399 L 185.754600 179.744399 L 185.460500 179.476699 L 184.833900 178.992999 L 184.156200 178.578399 L 183.427400 178.232899 L 182.647400 177.956499 L 181.816400 177.749299 L 180.934200 177.611099 L 180.000900 177.541999 L 179.515100 177.533299 Z M 694.518400 78.794599 L 693.264700 78.817699 L 692.029500 78.863899 L 690.812700 78.933099 L 689.614400 79.025399 L 688.434600 79.140699 L 687.273200 79.279099 L 686.130300 79.440599 L 685.005800 79.625199 L 683.899800 79.832899 L 682.812200 80.063599 L 681.743100 80.317399 L 680.692500 80.594199 L 679.660300 80.894199 L 678.646600 81.217199 L 677.651300 81.563199 L 676.674500 81.932399 L 675.716100 82.324599 L 674.776200 82.739899 L 673.854800 83.178199 L 672.951800 83.639699 L 672.067300 84.124199 L 671.201200 84.631699 L 670.353600 85.162399 L 669.524400 85.716099 L 668.713700 86.292899 L 667.921500 86.892799 L 667.147700 87.515699 L 666.392400 88.161699 L 665.655500 88.830799 L 664.937100 89.522899 L 664.237100 90.238099 L 663.894100 90.604399 L 663.556000 90.976099 L 662.895800 91.734499 L 662.256900 92.512999 L 661.639300 93.311599 L 661.042900 94.130399 L 660.467900 94.969199 L 659.914200 95.828199 L 659.381800 96.707299 L 658.870700 97.606499 L 658.380800 98.525799 L 657.912300 99.465199 L 657.465100 100.424799 L 657.039100 101.404399 L 656.634500 102.404199 L 656.251200 103.424099 L 655.889100 104.464099 L 655.548400 105.524199 L 655.228900 106.604399 L 654.930800 107.704699 L 654.653900 108.825199 L 654.398300 109.965699 L 654.164100 111.126399 L 653.951100 112.307199 L 653.759400 113.508099 L 653.589100 114.729099 L 653.440000 115.970299 L 653.312200 117.231499 L 653.205700 118.512899 L 653.120500 119.814299 L 653.056600 121.135899 L 653.014000 122.477599 L 652.992700 123.839399 L 652.990100 124.527899 L 652.992800 125.216299 L 653.014100 126.577799 L 653.056800 127.918899 L 653.120900 129.239599 L 653.206300 130.539899 L 653.313100 131.819799 L 653.441200 133.079299 L 653.590700 134.318299 L 653.761600 135.536999 L 653.953800 136.735199 L 654.167300 137.913099 L 654.402300 139.070499 L 654.658500 140.207499 L 654.936100 141.324099 L 655.235100 142.420299 L 655.555500 143.496099 L 655.897200 144.551499 L 656.260200 145.586399 L 656.644600 146.600999 L 657.050400 147.595099 L 657.477500 148.568899 L 657.926000 149.522199 L 658.395800 150.455099 L 658.887000 151.367599 L 659.399600 152.259699 L 659.933500 153.131399 L 660.488700 153.982699 L 661.065300 154.813599 L 661.663300 155.623999 L 662.282600 156.414099 L 662.923300 157.183699 L 663.585300 157.932999 L 663.924400 158.299899 L 664.268400 158.661499 L 664.970300 159.367499 L 665.690700 160.050799 L 666.429600 160.711299 L 667.187100 161.348999 L 667.963100 161.963999 L 668.757600 162.556199 L 669.570600 163.125499 L 670.402100 163.672199 L 671.252100 164.195999 L 672.120700 164.697099 L 673.007800 165.175399 L 673.913300 165.630899 L 674.837400 166.063599 L 675.780100 166.473599 L 676.741200 166.860799 L 677.720900 167.225199 L 678.719000 167.566799 L 679.735700 167.885699 L 680.770900 168.181799 L 681.824600 168.455099 L 682.896900 168.705599 L 683.987600 168.933399 L 685.096900 169.138399 L 686.224700 169.320599 L 687.371000 169.479999 L 688.535800 169.616599 L 689.719100 169.730499 L 690.921000 169.821599 L 692.141400 169.889999 L 693.380200 169.935499 L 694.637600 169.958299 L 695.273300 169.961099 L 695.908900 169.958299 L 697.166100 169.935299 L 698.404500 169.889399 L 699.624100 169.820499 L 700.825000 169.728699 L 702.007200 169.613999 L 703.170600 169.476199 L 704.315200 169.315599 L 705.441100 169.131899 L 706.548300 168.925399 L 707.636700 168.695799 L 708.706300 168.443299 L 709.757200 168.167899 L 710.789300 167.869499 L 711.802700 167.548199 L 712.797300 167.203899 L 713.773200 166.836599 L 714.730300 166.446399 L 715.668600 166.033299 L 716.588200 165.597099 L 717.489100 165.138099 L 718.371200 164.656099 L 719.234600 164.151099 L 720.079200 163.623199 L 720.905000 163.072299 L 721.712100 162.498499 L 722.500400 161.901699 L 723.270000 161.281899 L 724.020800 160.639199 L 724.752900 159.973599 L 725.466200 159.284999 L 726.160800 158.573399 L 726.501100 158.209099 L 726.836300 157.839299 L 727.491000 157.084699 L 728.124600 156.309899 L 728.737100 155.515099 L 729.328400 154.700099 L 729.898600 153.865099 L 730.447800 153.009899 L 730.975700 152.134599 L 731.482600 151.239199 L 731.968300 150.323599 L 732.433000 149.387999 L 732.876500 148.432199 L 733.298900 147.456399 L 733.700100 146.460399 L 734.080300 145.444299 L 734.439300 144.408099 L 734.777200 143.351799 L 735.094000 142.275299 L 735.389700 141.178799 L 735.664200 140.062099 L 735.917700 138.925299 L 736.150000 137.768499 L 736.361200 136.591399 L 736.551200 135.394299 L 736.720200 134.177099 L 736.868000 132.939699 L 736.994800 131.682299 L 737.100300 130.404699 L 737.184800 129.106999 L 737.248200 127.789199 L 737.290400 126.451299 L 737.311500 125.093299 L 737.314200 124.406699 L 737.311500 123.721999 L 737.290200 122.367599 L 737.247600 121.032999 L 737.183700 119.718199 L 737.098600 118.423399 L 736.992100 117.148399 L 736.864300 115.893299 L 736.715200 114.658099 L 736.544800 113.442799 L 736.353200 112.247299 L 736.140200 111.071699 L 735.905900 109.915999 L 735.650400 108.780199 L 735.373500 107.664199 L 735.075400 106.568099 L 734.755900 105.491899 L 734.415200 104.435599 L 734.053100 103.399199 L 733.669800 102.382599 L 733.265100 101.385899 L 732.839200 100.409099 L 732.392000 99.452199 L 731.923400 98.515099 L 731.433600 97.597899 L 730.922500 96.700599 L 730.390000 95.823199 L 729.836300 94.965599 L 729.261300 94.127999 L 728.665000 93.310199 L 728.047400 92.512199 L 727.408500 91.734199 L 726.748300 90.975999 L 726.410200 90.604399 L 726.067100 90.238099 L 725.367200 89.522899 L 724.648800 88.830799 L 723.911900 88.161699 L 723.156600 87.515699 L 722.382800 86.892799 L 721.590600 86.292899 L 720.779900 85.716099 L 719.950700 85.162399 L 719.103100 84.631699 L 718.237000 84.124199 L 717.352500 83.639699 L 716.449500 83.178199 L 715.528100 82.739899 L 714.588200 82.324599 L 713.629800 81.932399 L 712.653000 81.563199 L 711.657700 81.217199 L 710.644000 80.894199 L 709.611800 80.594199 L 708.561200 80.317399 L 707.492100 80.063599 L 706.404500 79.832899 L 705.298500 79.625199 L 704.174000 79.440599 L 703.031100 79.279099 L 701.869700 79.140699 L 700.689800 79.025399 L 699.491500 78.933099 L 698.274800 78.863899 L 697.039600 78.817699 L 695.785900 78.794599 L 695.152100 78.791799 Z M 1363.002300 78.794599 L 1361.767600 78.817599 L 1360.551400 78.863699 L 1359.353800 78.932699 L 1358.174600 79.024799 L 1357.014000 79.139799 L 1355.871900 79.277899 L 1354.748300 79.438999 L 1353.643300 79.623099 L 1352.556700 79.830199 L 1351.488700 80.060299 L 1350.439200 80.313499 L 1349.408200 80.589599 L 1348.395700 80.888799 L 1347.401700 81.210899 L 1346.426200 81.556099 L 1345.469300 81.924299 L 1344.530900 82.315499 L 1343.611000 82.729799 L 1342.709600 83.166999 L 1341.826700 83.627199 L 1340.962400 84.110499 L 1340.116500 84.616799 L 1339.289200 85.146099 L 1338.480400 85.698399 L 1337.690100 86.273699 L 1336.918300 86.871999 L 1336.165100 87.493299 L 1335.430300 88.137699 L 1334.714100 88.804999 L 1334.016400 89.495399 L 1333.337200 90.208799 L 1333.004600 90.574099 L 1332.676800 90.944799 L 1332.036800 91.701299 L 1331.417400 92.477799 L 1330.818700 93.274299 L 1330.240600 94.090899 L 1329.683100 94.927599 L 1329.146300 95.784299 L 1328.630200 96.661099 L 1328.134700 97.557999 L 1327.659800 98.474799 L 1327.205600 99.411799 L 1326.772000 100.368799 L 1326.359100 101.345799 L 1325.966800 102.342899 L 1325.595200 103.360099 L 1325.244200 104.397299 L 1324.913900 105.454599 L 1324.604200 106.531899 L 1324.315100 107.629299 L 1324.046700 108.746699 L 1323.799000 109.884199 L 1323.571900 111.041699 L 1323.365400 112.219299 L 1323.179600 113.416999 L 1323.014400 114.634699 L 1322.869900 115.872499 L 1322.746000 117.130299 L 1322.642800 118.408099 L 1322.560200 119.706099 L 1322.498300 121.023999 L 1322.457000 122.362099 L 1322.436300 123.720199 L 1322.433800 124.406699 L 1322.436800 125.074599 L 1322.460700 126.396399 L 1322.508600 127.699799 L 1322.580500 128.984699 L 1322.676300 130.251099 L 1322.796100 131.499099 L 1322.939900 132.728599 L 1323.107600 133.939699 L 1323.299300 135.132299 L 1323.514900 136.306499 L 1323.754500 137.462199 L 1324.018000 138.599499 L 1324.305500 139.718299 L 1324.617000 140.818599 L 1324.952400 141.900499 L 1325.311800 142.963899 L 1325.695200 144.008899 L 1326.102500 145.035399 L 1326.533700 146.043399 L 1326.989000 147.032999 L 1327.468100 148.004199 L 1327.971300 148.956799 L 1328.498400 149.891099 L 1329.049400 150.806799 L 1329.624400 151.704099 L 1330.223400 152.582999 L 1330.846300 153.443399 L 1331.493200 154.285299 L 1332.164100 155.108799 L 1332.858900 155.913799 L 1333.577700 156.700399 L 1334.320400 157.468499 L 1334.700700 157.845599 L 1335.086400 158.217499 L 1335.871600 158.943699 L 1336.675300 159.646499 L 1337.497500 160.325899 L 1338.338300 160.981799 L 1339.197600 161.614299 L 1340.075400 162.223399 L 1340.971700 162.809099 L 1341.886500 163.371299 L 1342.819800 163.910099 L 1343.771700 164.425499 L 1344.742000 164.917499 L 1345.730900 165.385999 L 1346.738300 165.831099 L 1347.764200 166.252799 L 1348.808600 166.650999 L 1349.871600 167.025899 L 1350.953100 167.377299 L 1352.053000 167.705199 L 1353.171500 168.009799 L 1354.308600 168.290899 L 1355.464100 168.548599 L 1356.638100 168.782799 L 1357.830700 168.993699 L 1359.041800 169.181099 L 1360.271400 169.345099 L 1361.519500 169.485599 L 1362.786100 169.602799 L 1364.071300 169.696499 L 1365.374900 169.766799 L 1366.697100 169.813599 L 1368.037800 169.836999 L 1368.715100 169.839999 L 1369.566000 169.834599 L 1371.262200 169.792099 L 1372.950800 169.706899 L 1374.631800 169.579099 L 1376.305300 169.408699 L 1377.971200 169.195699 L 1379.629500 168.940199 L 1381.280200 168.641999 L 1382.923400 168.301299 L 1384.559000 167.917899 L 1386.187000 167.491999 L 1387.807500 167.023499 L 1389.420300 166.512299 L 1391.025600 165.958599 L 1392.623400 165.362299 L 1394.213500 164.723399 L 1395.005800 164.387999 L 1388.766300 149.364699 L 1388.159700 149.662899 L 1386.942000 150.230799 L 1385.718200 150.760799 L 1384.488200 151.252999 L 1383.252000 151.707399 L 1382.009700 152.123799 L 1380.761200 152.502499 L 1379.506600 152.843199 L 1378.245800 153.146099 L 1376.978900 153.411099 L 1375.705800 153.638299 L 1374.426600 153.827599 L 1373.141200 153.978999 L 1371.849700 154.092599 L 1370.552000 154.168299 L 1369.248200 154.206199 L 1368.593900 154.210899 L 1367.837700 154.202899 L 1366.353500 154.139099 L 1364.907200 154.011299 L 1363.498800 153.819599 L 1362.128200 153.563999 L 1360.795500 153.244599 L 1359.500700 152.861199 L 1358.243700 152.413999 L 1357.024500 151.902899 L 1355.843300 151.327899 L 1354.699900 150.688999 L 1353.594300 149.986199 L 1352.526700 149.219499 L 1351.496800 148.388899 L 1350.504900 147.494399 L 1349.550800 146.536099 L 1349.087900 146.032999 L 1348.637000 145.516299 L 1347.778000 144.450099 L 1346.976300 143.339799 L 1346.231800 142.185499 L 1345.544700 140.987199 L 1344.914800 139.744899 L 1344.342100 138.458599 L 1343.826700 137.128199 L 1343.368600 135.753899 L 1342.967700 134.335499 L 1342.624200 132.873099 L 1342.337800 131.366699 L 1342.108800 129.816299 L 1341.937000 128.221899 L 1341.822500 126.583399 L 1341.765200 124.900999 L 1341.758000 124.043299 L 1341.763800 123.148799 L 1341.809900 121.399899 L 1341.902200 119.704199 L 1342.040700 118.061699 L 1342.225200 116.472499 L 1342.455900 114.936499 L 1342.732800 113.453799 L 1343.055800 112.024299 L 1343.425000 110.648099 L 1343.840200 109.325099 L 1344.301700 108.055299 L 1344.809200 106.838799 L 1345.363000 105.675499 L 1345.962800 104.565399 L 1346.608800 103.508699 L 1347.301000 102.505099 L 1347.664400 102.023299 L 1348.038700 101.555599 L 1348.818900 100.664599 L 1349.641000 99.833099 L 1350.504900 99.060999 L 1351.410700 98.348299 L 1352.358400 97.694899 L 1353.348000 97.100999 L 1354.379500 96.566399 L 1355.452900 96.091299 L 1356.568100 95.675499 L 1357.725200 95.319099 L 1358.924300 95.022199 L 1360.165100 94.784599 L 1361.447900 94.606399 L 1362.772600 94.487599 L 1364.139100 94.428199 L 1364.838100 94.420799 L 1365.573300 94.425499 L 1367.048000 94.463399 L 1368.528400 94.539099 L 1370.014400 94.652699 L 1371.506200 94.804099 L 1373.003600 94.993399 L 1374.506600 95.220599 L 1376.015400 95.485599 L 1376.771900 95.632299 L 1376.771900 114.108499 L 1359.991900 114.108499 L 1359.991900 129.737599 L 1395.126900 129.737599 L 1395.126900 83.819699 L 1394.063200 83.477899 L 1391.959000 82.833299 L 1389.886100 82.240799 L 1387.844500 81.700299 L 1385.834100 81.211899 L 1383.854900 80.775599 L 1381.906900 80.391299 L 1379.990200 80.058999 L 1379.043600 79.912399 L 1378.099500 79.776699 L 1376.203600 79.531599 L 1374.297300 79.321499 L 1372.380600 79.146299 L 1370.453500 79.006299 L 1368.516000 78.901199 L 1366.568000 78.831199 L 1364.609600 78.796099 L 1363.626600 78.791799 Z M 1229.628800 80.003299 L 1260.886900 168.931299 L 1283.845800 168.931299 L 1315.225000 80.003299 L 1294.992100 80.003299 L 1288.570800 101.084299 L 1256.283000 101.084299 L 1249.861700 80.003299 Z M 1416.208000 80.003299 L 1416.208000 168.567799 L 1467.214400 168.567799 L 1467.214400 153.181099 L 1434.987000 153.181099 L 1434.987000 133.735699 L 1464.973000 133.735699 L 1464.973000 118.348999 L 1434.987000 118.348999 L 1434.987000 95.511199 L 1467.214400 95.511199 L 1467.214400 80.003299 Z M 1170.686700 80.003299 L 1170.686700 168.567799 L 1189.465800 168.567799 L 1189.465800 95.511199 L 1225.388400 95.511199 L 1225.388400 80.003299 Z M 1101.204200 80.003299 L 1101.204200 168.567799 L 1152.210500 168.567799 L 1152.210500 153.181099 L 1119.983200 153.181099 L 1119.983200 133.735699 L 1149.969200 133.735699 L 1149.969200 118.348999 L 1119.983200 118.348999 L 1119.983200 95.511199 L 1152.210500 95.511199 L 1152.210500 80.003299 Z M 1017.849300 80.003299 L 1017.849300 168.567799 L 1045.412100 168.567799 L 1046.579500 168.562599 L 1048.853800 168.520699 L 1051.047400 168.436999 L 1053.160300 168.311299 L 1055.192400 168.143799 L 1057.143900 167.934299 L 1059.014800 167.682999 L 1060.804900 167.389899 L 1062.514300 167.054799 L 1064.143000 166.677799 L 1065.691100 166.258999 L 1067.158400 165.798299 L 1068.545100 165.295699 L 1069.851100 164.751199 L 1071.076300 164.164799 L 1072.220900 163.536599 L 1072.763000 163.206699 L 1073.286600 162.865499 L 1074.284000 162.145899 L 1075.214900 161.376799 L 1076.079300 160.558299 L 1076.877200 159.690299 L 1077.608700 158.772899 L 1078.273600 157.805999 L 1078.872000 156.789699 L 1079.404000 155.723899 L 1079.869400 154.608699 L 1080.268400 153.443999 L 1080.600900 152.229799 L 1080.866800 150.966199 L 1081.066300 149.653099 L 1081.199300 148.290599 L 1081.265800 146.878599 L 1081.274100 146.154099 L 1081.270500 145.660899 L 1081.241400 144.691199 L 1081.183200 143.743699 L 1081.095800 142.818499 L 1080.979400 141.915499 L 1080.833900 141.034799 L 1080.659300 140.176299 L 1080.455500 139.339999 L 1080.222700 138.525999 L 1079.960700 137.734199 L 1079.669700 136.964699 L 1079.349500 136.217399 L 1079.000200 135.492399 L 1078.621900 134.789599 L 1078.214400 134.108999 L 1077.777800 133.450699 L 1077.548600 133.129899 L 1077.313300 132.815799 L 1076.828500 132.211499 L 1076.324500 131.638799 L 1075.801300 131.097899 L 1075.258900 130.588699 L 1074.697400 130.111099 L 1074.116700 129.665299 L 1073.516800 129.251199 L 1072.897800 128.868799 L 1072.259600 128.518099 L 1071.602200 128.199199 L 1070.925700 127.911899 L 1070.230000 127.656299 L 1069.515200 127.432499 L 1068.781100 127.240299 L 1068.027900 127.079899 L 1067.644100 127.011599 L 1067.644100 126.405799 L 1068.165800 126.285199 L 1069.181700 126.024899 L 1070.160900 125.739099 L 1071.103400 125.427699 L 1072.009200 125.090699 L 1072.878300 124.728199 L 1073.710800 124.340099 L 1074.506600 123.926499 L 1075.265700 123.487299 L 1075.988100 123.022599 L 1076.673900 122.532299 L 1077.323000 122.016399 L 1077.935400 121.474999 L 1078.511100 120.907999 L 1079.050200 120.315499 L 1079.552500 119.697399 L 1079.790000 119.378799 L 1080.019200 119.053699 L 1080.455800 118.383499 L 1080.863200 117.686899 L 1081.241600 116.963699 L 1081.590900 116.214099 L 1081.911000 115.437899 L 1082.202100 114.635299 L 1082.464000 113.806099 L 1082.696900 112.950499 L 1082.900600 112.068299 L 1083.075300 111.159599 L 1083.220800 110.224499 L 1083.337200 109.262799 L 1083.424500 108.274599 L 1083.482700 107.259899 L 1083.511800 106.218799 L 1083.515500 105.688199 L 1083.513300 105.310899 L 1083.496300 104.564099 L 1083.462100 103.827699 L 1083.410800 103.101699 L 1083.342400 102.386199 L 1083.256900 101.680999 L 1083.154300 100.986199 L 1083.034600 100.301899 L 1082.897900 99.627999 L 1082.744000 98.964499 L 1082.573000 98.311399 L 1082.385000 97.668699 L 1082.179800 97.036399 L 1081.957600 96.414499 L 1081.718200 95.803099 L 1081.461800 95.201999 L 1081.188200 94.611399 L 1080.897600 94.031199 L 1080.589800 93.461399 L 1080.265000 92.901999 L 1079.923100 92.352999 L 1079.564000 91.814399 L 1079.187900 91.286299 L 1078.794700 90.768499 L 1078.384400 90.261199 L 1077.956900 89.764199 L 1077.512400 89.277699 L 1077.050800 88.801599 L 1076.572100 88.335899 L 1076.076300 87.880699 L 1075.563400 87.435799 L 1075.033400 87.001299 L 1074.762000 86.787999 L 1074.208800 86.370599 L 1073.065600 85.575499 L 1071.873500 84.833399 L 1070.632400 84.144399 L 1069.342200 83.508299 L 1068.003100 82.925199 L 1066.615100 82.395199 L 1065.178000 81.918099 L 1063.691900 81.494099 L 1062.156900 81.122999 L 1060.572900 80.804999 L 1058.939900 80.539999 L 1057.257900 80.327999 L 1055.527000 80.168899 L 1053.747000 80.062899 L 1051.918100 80.009899 L 1050.985300 80.003299 Z M 916.987500 80.003299 L 916.987500 168.567799 L 940.673400 168.567799 L 979.140200 102.235299 L 979.564200 102.235299 L 979.351300 106.393399 L 979.085000 112.037799 L 978.943100 115.405499 L 978.829500 118.457099 L 978.744300 121.192599 L 978.687500 123.611899 L 978.659100 125.715099 L 978.655600 126.648099 L 978.655600 168.567799 L 995.556700 168.567799 L 995.556700 80.003299 L 971.689100 80.003299 L 933.161700 147.002199 L 932.616500 147.002199 L 932.886300 142.723899 L 933.223500 136.902799 L 933.403300 133.419499 L 933.547200 130.254399 L 933.655100 127.407199 L 933.727100 124.878099 L 933.763000 122.666999 L 933.767500 121.680699 L 933.767500 80.003299 Z M 847.504900 80.003299 L 847.504900 168.567799 L 898.511300 168.567799 L 898.511300 153.181099 L 866.284000 153.181099 L 866.284000 133.735699 L 896.270000 133.735699 L 896.270000 118.348999 L 866.284000 118.348999 L 866.284000 95.511199 L 898.511300 95.511199 L 898.511300 80.003299 Z M 755.669200 80.003299 L 755.669200 168.567799 L 783.474400 168.567799 L 784.149700 168.564999 L 785.486200 168.542699 L 786.803800 168.497999 L 788.102400 168.430899 L 789.382100 168.341399 L 790.642900 168.229599 L 791.884700 168.095499 L 793.107600 167.938899 L 794.311600 167.759999 L 795.496700 167.558799 L 796.662800 167.335199 L 797.810000 167.089199 L 798.938200 166.820799 L 800.047600 166.530099 L 801.137900 166.217099 L 802.209400 165.881599 L 803.262000 165.523899 L 804.295600 165.143699 L 805.310200 164.741199 L 806.306000 164.316299 L 807.282800 163.869099 L 808.240700 163.399499 L 809.179600 162.907499 L 810.099700 162.393199 L 811.000700 161.856499 L 811.882900 161.297499 L 812.746100 160.716099 L 813.590400 160.112299 L 814.415800 159.486199 L 815.222300 158.837699 L 816.009800 158.166899 L 816.778300 157.473699 L 817.155500 157.118699 L 817.527400 156.758699 L 818.253600 156.025299 L 818.956400 155.274299 L 819.635800 154.505499 L 820.291800 153.718899 L 820.924300 152.914599 L 821.533400 152.092499 L 822.119000 151.252699 L 822.681300 150.395199 L 823.220100 149.519899 L 823.735500 148.626799 L 824.227400 147.715999 L 824.695900 146.787499 L 825.141000 145.841199 L 825.562700 144.877199 L 825.961000 143.895399 L 826.335800 142.895799 L 826.687200 141.878599 L 827.015200 140.843499 L 827.319700 139.790799 L 827.600800 138.720199 L 827.858500 137.631999 L 828.092800 136.525999 L 828.303600 135.402199 L 828.491000 134.260699 L 828.655000 133.101399 L 828.795600 131.924399 L 828.912700 130.729699 L 829.006400 129.517199 L 829.076700 128.286899 L 829.123600 127.038899 L 829.147000 125.773199 L 829.149900 125.133699 L 829.146900 124.452799 L 829.122600 123.105999 L 829.073900 121.779199 L 829.001000 120.472399 L 828.903700 119.185599 L 828.782200 117.918799 L 828.636300 116.671999 L 828.466100 115.445199 L 828.271600 114.238299 L 828.052700 113.051499 L 827.809600 111.884699 L 827.542200 110.737799 L 827.250400 109.610999 L 826.934300 108.504199 L 826.593900 107.417299 L 826.229200 106.350499 L 825.840200 105.303599 L 825.426800 104.276699 L 824.989200 103.269899 L 824.527200 102.282999 L 824.041000 101.316099 L 823.530400 100.369199 L 822.995500 99.442399 L 822.436200 98.535499 L 821.852700 97.648599 L 821.244900 96.781699 L 820.612700 95.934799 L 819.956200 95.107899 L 819.275400 94.300999 L 818.570300 93.513999 L 817.840900 92.747099 L 817.087200 92.000199 L 816.701200 91.634199 L 816.309500 91.273599 L 815.509800 90.569399 L 814.688600 89.887899 L 813.845800 89.229099 L 812.981400 88.592999 L 812.095400 87.979699 L 811.187800 87.388999 L 810.258600 86.821099 L 809.307800 86.275899 L 808.335400 85.753499 L 807.341400 85.253699 L 806.325900 84.776599 L 805.288700 84.322299 L 804.230000 83.890699 L 803.149600 83.481799 L 802.047700 83.095599 L 800.924200 82.732099 L 799.779100 82.391399 L 798.612300 82.073399 L 797.424000 81.777999 L 796.214100 81.505399 L 794.982700 81.255599 L 793.729600 81.028399 L 792.454900 80.823899 L 791.158600 80.642199 L 789.840800 80.483199 L 788.501300 80.346899 L 787.140300 80.233299 L 785.757600 80.142399 L 784.353400 80.074299 L 782.927600 80.028899 L 781.480200 80.006099 L 780.748400 80.003299 Z M 573.572800 80.003299 L 573.572800 168.567799 L 601.135600 168.567799 L 602.303000 168.562599 L 604.577300 168.520699 L 606.770800 168.436999 L 608.883700 168.311299 L 610.915900 168.143799 L 612.867400 167.934299 L 614.738200 167.682999 L 616.528300 167.389899 L 618.237800 167.054799 L 619.866500 166.677799 L 621.414500 166.258999 L 622.881900 165.798299 L 624.268600 165.295699 L 625.574500 164.751199 L 626.799800 164.164799 L 627.944400 163.536599 L 628.486400 163.206699 L 629.010100 162.865499 L 630.007500 162.145899 L 630.938400 161.376799 L 631.802800 160.558299 L 632.600700 159.690299 L 633.332100 158.772899 L 633.997100 157.805999 L 634.595500 156.789699 L 635.127500 155.723899 L 635.592900 154.608699 L 635.991900 153.443999 L 636.324300 152.229799 L 636.590300 150.966199 L 636.789800 149.653099 L 636.922800 148.290599 L 636.989300 146.878599 L 636.997600 146.154099 L 636.993900 145.660899 L 636.964800 144.691199 L 636.906600 143.743699 L 636.819300 142.818499 L 636.702900 141.915499 L 636.557400 141.034799 L 636.382700 140.176299 L 636.179000 139.339999 L 635.946100 138.525999 L 635.684200 137.734199 L 635.393100 136.964699 L 635.073000 136.217399 L 634.723700 135.492399 L 634.345300 134.789599 L 633.937900 134.108999 L 633.501300 133.450699 L 633.272100 133.129899 L 633.036800 132.815799 L 632.552000 132.211499 L 632.047900 131.638799 L 631.524700 131.097899 L 630.982400 130.588699 L 630.420900 130.111099 L 629.840200 129.665299 L 629.240300 129.251199 L 628.621300 128.868799 L 627.983100 128.518099 L 627.325700 128.199199 L 626.649200 127.911899 L 625.953500 127.656299 L 625.238600 127.432499 L 624.504600 127.240299 L 623.751400 127.079899 L 623.367600 127.011599 L 623.367600 126.405799 L 623.889300 126.285199 L 624.905200 126.024899 L 625.884300 125.739099 L 626.826800 125.427699 L 627.732700 125.090699 L 628.601800 124.728199 L 629.434300 124.340099 L 630.230100 123.926499 L 630.989200 123.487299 L 631.711600 123.022599 L 632.397400 122.532299 L 633.046500 122.016399 L 633.658900 121.474999 L 634.234600 120.907999 L 634.773600 120.315499 L 635.276000 119.697399 L 635.513400 119.378799 L 635.742600 119.053699 L 636.179200 118.383499 L 636.586700 117.686899 L 636.965100 116.963699 L 637.314300 116.214099 L 637.634500 115.437899 L 637.925600 114.635299 L 638.187500 113.806099 L 638.420400 112.950499 L 638.624100 112.068299 L 638.798700 111.159599 L 638.944300 110.224499 L 639.060700 109.262799 L 639.148000 108.274599 L 639.206200 107.259899 L 639.235300 106.218799 L 639.239000 105.688199 L 639.236800 105.310899 L 639.219700 104.564099 L 639.185500 103.827699 L 639.134200 103.101699 L 639.065900 102.386199 L 638.980400 101.680999 L 638.877800 100.986199 L 638.758100 100.301899 L 638.621300 99.627999 L 638.467500 98.964499 L 638.296500 98.311399 L 638.108400 97.668699 L 637.903300 97.036399 L 637.681000 96.414499 L 637.441700 95.803099 L 637.185200 95.201999 L 636.911700 94.611399 L 636.621000 94.031199 L 636.313300 93.461399 L 635.988500 92.901999 L 635.646500 92.352999 L 635.287500 91.814399 L 634.911400 91.286299 L 634.518200 90.768499 L 634.107800 90.261199 L 633.680400 89.764199 L 633.235900 89.277699 L 632.774300 88.801599 L 632.295600 88.335899 L 631.799800 87.880699 L 631.286900 87.435799 L 630.756900 87.001299 L 630.485500 86.787999 L 629.932300 86.370599 L 628.789100 85.575499 L 627.597000 84.833399 L 626.355800 84.144399 L 625.065700 83.508299 L 623.726600 82.925199 L 622.338500 82.395199 L 620.901500 81.918099 L 619.415400 81.494099 L 617.880400 81.122999 L 616.296400 80.804999 L 614.663400 80.539999 L 612.981400 80.327999 L 611.250500 80.168899 L 609.470500 80.062899 L 607.641600 80.009899 L 606.708800 80.003299 Z M 459.444500 80.003299 L 459.444500 168.567799 L 485.250600 168.567799 L 485.812400 168.566199 L 486.922300 168.553399 L 488.013900 168.527699 L 489.087100 168.489199 L 490.142000 168.437899 L 491.178600 168.373699 L 492.196800 168.296699 L 493.196700 168.206799 L 494.178300 168.104099 L 495.141500 167.988599 L 496.086300 167.860199 L 497.012900 167.718999 L 497.921100 167.564899 L 498.810900 167.397999 L 499.682400 167.218299 L 500.535600 167.025799 L 501.370400 166.820399 L 502.186900 166.602099 L 502.985100 166.371099 L 503.764900 166.127199 L 504.526400 165.870399 L 505.269500 165.600799 L 505.994300 165.318399 L 506.700800 165.023199 L 507.388900 164.715099 L 508.058700 164.394099 L 508.710200 164.060399 L 509.343300 163.713799 L 509.958000 163.354299 L 510.554500 162.981999 L 511.132600 162.596899 L 511.692300 162.198999 L 511.965300 161.995199 L 512.233900 161.788099 L 512.758400 161.363999 L 513.266000 160.926599 L 513.756600 160.475899 L 514.230400 160.011799 L 514.687200 159.534499 L 515.127100 159.043799 L 515.550000 158.539899 L 515.956100 158.022599 L 516.345200 157.491999 L 516.717500 156.948099 L 517.072800 156.390899 L 517.411200 155.820399 L 517.732600 155.236499 L 518.037200 154.639399 L 518.324800 154.028999 L 518.595500 153.405199 L 518.849300 152.768099 L 519.086100 152.117699 L 519.306100 151.454099 L 519.509100 150.777099 L 519.695200 150.086699 L 519.864400 149.383099 L 520.016700 148.666199 L 520.152100 147.935899 L 520.270500 147.192399 L 520.372000 146.435499 L 520.456600 145.665299 L 520.524300 144.881899 L 520.575000 144.085099 L 520.608900 143.274899 L 520.625800 142.451499 L 520.627900 142.034799 L 520.623700 141.548099 L 520.590100 140.584799 L 520.522900 139.634899 L 520.422100 138.698599 L 520.287700 137.775699 L 520.119700 136.866399 L 519.918100 135.970499 L 519.682900 135.088099 L 519.414000 134.219199 L 519.111600 133.363699 L 518.775600 132.521799 L 518.406000 131.693399 L 518.002800 130.878399 L 517.566000 130.076899 L 517.095500 129.288899 L 516.591500 128.514399 L 516.326900 128.132299 L 516.054600 127.754299 L 515.489000 127.013899 L 514.895600 126.294099 L 514.274200 125.594799 L 513.624900 124.916199 L 512.947600 124.258099 L 512.242500 123.620599 L 511.509400 123.003699 L 510.748400 122.407399 L 509.959400 121.831699 L 509.142600 121.276499 L 508.297800 120.741999 L 507.425100 120.227999 L 506.524500 119.734599 L 505.596000 119.261899 L 504.639500 118.809699 L 504.150800 118.591299 L 513.275300 104.980199 L 523.696500 89.518699 L 527.437700 84.017799 L 529.387500 81.176299 L 530.199200 80.003299 L 509.360500 80.003299 L 488.218900 113.987399 L 478.223500 113.987399 L 478.223500 80.003299 Z M 389.961900 80.003299 L 389.961900 168.567799 L 440.968300 168.567799 L 440.968300 153.181099 L 408.741000 153.181099 L 408.741000 133.735699 L 438.726900 133.735699 L 438.726900 118.348999 L 408.741000 118.348999 L 408.741000 95.511199 L 440.968300 95.511199 L 440.968300 80.003299 Z M 319.873600 80.003299 L 319.873600 168.567799 L 338.652600 168.567799 L 338.652600 95.511199 L 374.575200 95.511199 L 374.575200 80.003299 Z M 249.785200 80.003299 L 249.785200 168.567799 L 268.564300 168.567799 L 268.564300 95.511199 L 304.486800 95.511199 L 304.486800 80.003299 Z M 190.856400 78.793899 L 189.803600 78.810999 L 188.765700 78.845199 L 187.742800 78.896499 L 186.734700 78.964899 L 185.741600 79.050299 L 184.763300 79.152899 L 183.800000 79.272599 L 182.851600 79.409399 L 181.918100 79.563199 L 180.999500 79.734199 L 180.095800 79.922299 L 179.207000 80.127399 L 178.333100 80.349699 L 177.474200 80.588999 L 176.630100 80.845499 L 175.800900 81.118999 L 174.986700 81.409699 L 174.187300 81.717399 L 173.402900 82.042299 L 172.633400 82.384199 L 171.878800 82.743199 L 171.139100 83.119299 L 170.414300 83.512599 L 169.704400 83.922899 L 169.009400 84.350299 L 168.329300 84.794799 L 167.664100 85.256399 L 167.013900 85.735099 L 166.378500 86.230899 L 165.758100 86.743799 L 165.152500 87.273799 L 164.855300 87.545199 L 164.562300 87.820299 L 163.990200 88.379999 L 163.436400 88.952299 L 162.901200 89.537199 L 162.384400 90.134699 L 161.886000 90.744799 L 161.406100 91.367499 L 160.944700 92.002799 L 160.501700 92.650699 L 160.077200 93.311199 L 159.671200 93.984299 L 159.283600 94.669999 L 158.914400 95.368299 L 158.563700 96.079199 L 158.231500 96.802699 L 157.917700 97.538799 L 157.622400 98.287499 L 157.345500 99.048799 L 157.087100 99.822699 L 156.847200 100.609199 L 156.625700 101.408299 L 156.422700 102.219999 L 156.238100 103.044299 L 156.072000 103.881199 L 155.924300 104.730699 L 155.795100 105.592799 L 155.684400 106.467599 L 155.592100 107.354899 L 155.518300 108.254799 L 155.462900 109.167299 L 155.426000 110.092399 L 155.407500 111.030099 L 155.405200 111.503699 L 155.405200 168.567799 L 174.123700 168.567799 L 174.123700 114.350799 L 174.127700 113.716299 L 174.159900 112.479199 L 174.224300 111.284699 L 174.320800 110.132799 L 174.449600 109.023399 L 174.610500 107.956699 L 174.803600 106.932599 L 175.028800 105.950999 L 175.286300 105.012099 L 175.575900 104.115699 L 175.897700 103.261899 L 176.251700 102.450799 L 176.637900 101.682199 L 177.056300 100.956199 L 177.506800 100.272799 L 177.989600 99.631999 L 178.243000 99.327599 L 178.505700 99.033199 L 179.062700 98.472299 L 179.661900 97.948899 L 180.303200 97.462899 L 180.986600 97.014199 L 181.712100 96.602899 L 182.479700 96.229099 L 183.289500 95.892599 L 184.141300 95.593499 L 185.035300 95.331799 L 185.971400 95.107399 L 186.949700 94.920499 L 187.970000 94.770899 L 189.032500 94.658799 L 190.137100 94.583999 L 191.283800 94.546599 L 191.873000 94.541899 L 192.443500 94.546599 L 193.555000 94.584299 L 194.626900 94.659499 L 195.659300 94.772399 L 196.652200 94.922899 L 197.605600 95.110999 L 198.519500 95.336799 L 199.393900 95.600099 L 200.228700 95.901099 L 201.024000 96.239699 L 201.779800 96.615999 L 202.496100 97.029899 L 203.172900 97.481399 L 203.810100 97.970499 L 204.407800 98.497199 L 204.966100 99.061599 L 205.230300 99.357899 L 205.485600 99.664199 L 205.971900 100.308999 L 206.425800 100.996699 L 206.847200 101.727199 L 207.236200 102.500499 L 207.592800 103.316599 L 207.917000 104.175599 L 208.208800 105.077399 L 208.468100 106.021999 L 208.695100 107.009499 L 208.889600 108.039799 L 209.051700 109.112899 L 209.181300 110.228899 L 209.278600 111.387699 L 209.343400 112.589299 L 209.375900 113.833699 L 209.379900 114.471999 L 209.379900 168.567799 L 228.098400 168.567799 L 228.098400 111.261399 L 228.094100 110.650399 L 228.059800 109.442599 L 227.991200 108.253799 L 227.888200 107.083899 L 227.751000 105.932899 L 227.579400 104.800899 L 227.373600 103.687799 L 227.133400 102.593599 L 226.858900 101.518299 L 226.550100 100.461999 L 226.207000 99.424599 L 225.829600 98.406099 L 225.417800 97.406599 L 224.971800 96.425999 L 224.491400 95.464299 L 223.976700 94.521599 L 223.706500 94.057299 L 223.428200 93.598799 L 222.848700 92.701999 L 222.238700 91.832099 L 221.598100 90.989199 L 220.927000 90.173299 L 220.225400 89.384399 L 219.493300 88.622399 L 218.730600 87.887499 L 217.937400 87.179499 L 217.113700 86.498399 L 216.259500 85.844399 L 215.374700 85.217299 L 214.459400 84.617199 L 213.513600 84.044099 L 212.537300 83.497899 L 211.530400 82.978799 L 211.015500 82.729299 L 210.493900 82.487099 L 209.432800 82.025599 L 208.348100 81.594999 L 207.239700 81.194999 L 206.107700 80.825899 L 204.951900 80.487499 L 203.772600 80.179899 L 202.569500 79.902999 L 201.342800 79.656899 L 200.092500 79.441599 L 198.818500 79.256999 L 197.520800 79.103199 L 196.199400 78.980199 L 194.854400 78.887899 L 193.485700 78.826399 L 192.093400 78.795599 L 191.388300 78.791799 Z M 39.035500 80.003299 L 39.035500 168.567799 L 64.599300 168.567799 L 85.559200 100.841999 L 85.922700 100.841999 L 108.154700 168.567799 L 133.718400 168.567799 L 133.718400 80.003299 L 116.211500 80.003299 L 116.211500 121.922999 L 116.212900 122.679299 L 116.224300 124.277099 L 116.247000 125.988399 L 116.281000 127.813299 L 116.302300 128.768299 L 116.316200 129.303099 L 116.358800 130.673699 L 116.421300 132.445599 L 116.503600 134.618799 L 116.796400 141.807699 L 117.120100 149.364699 L 116.574900 149.364699 L 93.737200 80.003299 L 76.533100 80.003299 L 55.209800 149.485899 L 54.664600 149.485899 L 54.934300 144.405899 L 55.366000 135.569099 L 55.595300 130.099399 L 55.703200 127.004199 L 55.775100 124.350199 L 55.811100 122.137199 L 55.815600 121.196099 L 55.815600 80.003299 Z M 1280.122200 129.604999 L 1276.533100 141.191699 L 1275.523100 144.464799 L 1274.756400 146.959799 L 1274.233000 148.676799 L 1274.062500 149.243599 L 1273.792300 150.157899 L 1273.311400 151.838899 L 1272.910100 153.323099 L 1272.588300 154.610399 L 1272.457200 155.180199 L 1272.178200 154.121699 L 1271.445600 151.469599 L 1270.480100 148.103699 L 1269.281800 144.024199 L 1267.047800 136.566699 L 1263.254100 124.125599 L 1261.008000 116.834499 L 1284.088100 116.834499 Z M 695.849000 94.549199 L 697.209700 94.607599 L 698.526600 94.724199 L 699.799500 94.899199 L 701.028600 95.132499 L 702.213800 95.424199 L 703.355000 95.774199 L 704.452400 96.182499 L 705.505900 96.649099 L 706.515500 97.174099 L 707.481200 97.757399 L 708.403000 98.398999 L 709.280900 99.098899 L 710.114900 99.857199 L 710.905000 100.673899 L 711.651200 101.548799 L 712.353500 102.482099 L 713.012000 103.473699 L 713.626500 104.523599 L 714.197100 105.631899 L 714.723900 106.798499 L 715.206700 108.023399 L 715.645700 109.306599 L 716.040700 110.648199 L 716.391900 112.048099 L 716.699200 113.506399 L 716.962500 115.022899 L 717.182000 116.597799 L 717.357600 118.231099 L 717.489300 119.922599 L 717.577100 121.672499 L 717.621000 123.480699 L 717.626400 124.406699 L 717.621000 125.334599 L 717.577300 127.146499 L 717.490000 128.899899 L 717.359000 130.594899 L 717.184400 132.231499 L 716.966100 133.809499 L 716.704200 135.329199 L 716.398500 136.790399 L 716.049300 138.193099 L 715.656400 139.537399 L 715.219800 140.823299 L 714.739500 142.050699 L 714.215600 143.219699 L 713.648100 144.330199 L 713.036800 145.382199 L 712.382000 146.375899 L 711.683400 147.310999 L 710.941200 148.187699 L 710.155400 149.005999 L 709.325900 149.765799 L 708.452700 150.467199 L 707.535900 151.110099 L 706.575400 151.694599 L 705.571200 152.220699 L 704.523400 152.688199 L 703.432000 153.097399 L 702.296900 153.448099 L 701.118100 153.740299 L 699.895600 153.974099 L 698.629500 154.149399 L 697.319800 154.266299 L 695.966400 154.324799 L 695.273300 154.332099 L 694.578200 154.324699 L 693.220500 154.265799 L 691.905700 154.147999 L 690.634100 153.971199 L 689.405500 153.735499 L 688.220000 153.440899 L 687.077500 153.087399 L 685.978100 152.674899 L 684.921800 152.203599 L 683.908500 151.673299 L 682.938300 151.084099 L 682.011200 150.435899 L 681.127200 149.728899 L 680.286200 148.962899 L 679.488300 148.137999 L 678.733400 147.254199 L 678.372100 146.790199 L 678.021800 146.311699 L 677.354500 145.311899 L 676.731700 144.255099 L 676.153300 143.141299 L 675.619500 141.970399 L 675.130200 140.742599 L 674.685300 139.457599 L 674.284900 138.115699 L 673.929000 136.716699 L 673.617600 135.260699 L 673.350700 133.747699 L 673.128300 132.177699 L 672.950300 130.550599 L 672.816800 128.866499 L 672.727900 127.125399 L 672.683400 125.327199 L 672.677800 124.406699 L 672.683300 123.486299 L 672.727300 121.688399 L 672.815400 119.947699 L 672.947400 118.264299 L 673.123500 116.638199 L 673.343500 115.069299 L 673.607600 113.557699 L 673.915700 112.103399 L 674.267800 110.706299 L 674.663900 109.366499 L 675.104100 108.083999 L 675.588200 106.858699 L 676.116400 105.690699 L 676.688500 104.579899 L 677.304700 103.526399 L 677.964900 102.530199 L 678.311500 102.053599 L 678.669100 101.591399 L 679.416900 100.711199 L 680.208100 99.889599 L 681.043000 99.126699 L 681.921400 98.422499 L 682.843300 97.776899 L 683.808700 97.190099 L 684.817700 96.661899 L 685.870300 96.192399 L 686.966300 95.781699 L 688.106000 95.429499 L 689.289100 95.136099 L 690.515800 94.901399 L 691.786100 94.725299 L 693.099800 94.607999 L 694.457100 94.549299 L 695.152100 94.541899 Z M 1048.005300 133.495699 L 1048.926500 133.514099 L 1049.814800 133.551099 L 1050.670200 133.606399 L 1051.492800 133.680299 L 1052.282400 133.772499 L 1053.039200 133.883299 L 1053.763000 134.012499 L 1054.454000 134.160099 L 1055.112000 134.326299 L 1055.737200 134.510799 L 1056.329500 134.713899 L 1056.888900 134.935399 L 1057.415400 135.175299 L 1057.909000 135.433699 L 1058.369800 135.710599 L 1058.587800 135.855899 L 1058.798400 136.006599 L 1059.199400 136.325999 L 1059.573800 136.669599 L 1059.921400 137.037299 L 1060.242300 137.429199 L 1060.536400 137.845199 L 1060.803800 138.285299 L 1061.044500 138.749599 L 1061.258400 139.237999 L 1061.445500 139.750599 L 1061.606000 140.287199 L 1061.739700 140.848099 L 1061.846600 141.432999 L 1061.926900 142.042099 L 1061.980300 142.675299 L 1062.007100 143.332699 L 1062.010400 143.670399 L 1062.006800 143.985599 L 1061.977700 144.599199 L 1061.919500 145.190299 L 1061.832100 145.758999 L 1061.715700 146.305099 L 1061.570200 146.828799 L 1061.395600 147.329999 L 1061.191800 147.808699 L 1060.959000 148.264899 L 1060.697000 148.698599 L 1060.406000 149.109899 L 1060.085800 149.498699 L 1059.736500 149.864999 L 1059.358200 150.208799 L 1058.950700 150.530199 L 1058.514100 150.828999 L 1058.284900 150.969999 L 1058.047800 151.106099 L 1057.548300 151.365199 L 1057.014900 151.606999 L 1056.447700 151.831599 L 1055.846700 152.038899 L 1055.211800 152.228899 L 1054.543100 152.401599 L 1053.840500 152.557099 L 1053.104100 152.695299 L 1052.333900 152.816199 L 1051.529800 152.919799 L 1050.691900 153.006199 L 1049.820100 153.075299 L 1048.914600 153.127099 L 1047.975100 153.161699 L 1047.001900 153.178999 L 1046.502500 153.181099 L 1036.628400 153.181099 L 1036.628400 133.493399 L 1047.532400 133.493399 Z M 783.346600 95.518299 L 784.989700 95.575199 L 786.579900 95.688999 L 788.117100 95.859799 L 789.601200 96.087399 L 791.032400 96.371899 L 792.410500 96.713399 L 793.735600 97.111799 L 795.007800 97.567099 L 796.226900 98.079199 L 797.393000 98.648299 L 798.506100 99.274399 L 799.566200 99.957299 L 800.573300 100.697099 L 801.527400 101.493799 L 802.428500 102.347499 L 803.276600 103.257999 L 804.071700 104.225499 L 804.813800 105.249899 L 805.502900 106.331199 L 806.138900 107.469399 L 806.722000 108.664499 L 807.252000 109.916499 L 807.729100 111.225399 L 808.153100 112.591299 L 808.524200 114.013999 L 808.842200 115.493699 L 809.107200 117.030199 L 809.319200 118.623699 L 809.478300 120.274099 L 809.584300 121.981399 L 809.637300 123.745599 L 809.643900 124.648999 L 809.637800 125.533699 L 809.588500 127.261199 L 809.490100 128.932999 L 809.342400 130.549099 L 809.145600 132.109499 L 808.899500 133.614099 L 808.604100 135.062999 L 808.259600 136.456099 L 807.865900 137.793599 L 807.422900 139.075299 L 806.930700 140.301299 L 806.389300 141.471499 L 805.798600 142.586099 L 805.158800 143.644899 L 804.469700 144.647999 L 803.731400 145.595299 L 802.943900 146.486899 L 802.107200 147.322799 L 801.221200 148.102999 L 800.286100 148.827499 L 799.301700 149.496199 L 798.268100 150.109199 L 797.185300 150.666399 L 796.053200 151.167999 L 794.871900 151.613799 L 793.641500 152.003899 L 792.361800 152.338199 L 791.032800 152.616899 L 789.654700 152.839799 L 788.227300 153.006999 L 786.750800 153.118399 L 785.225000 153.174199 L 784.443600 153.181099 L 774.448300 153.181099 L 774.448300 95.511199 L 782.505100 95.511199 Z M 603.728800 133.495699 L 604.650000 133.514099 L 605.538300 133.551099 L 606.393700 133.606399 L 607.216200 133.680299 L 608.005900 133.772499 L 608.762600 133.883299 L 609.486500 134.012499 L 610.177400 134.160099 L 610.835500 134.326299 L 611.460700 134.510799 L 612.053000 134.713899 L 612.612400 134.935399 L 613.138900 135.175299 L 613.632500 135.433699 L 614.093200 135.710599 L 614.311300 135.855899 L 614.521800 136.006599 L 614.922900 136.325999 L 615.297300 136.669599 L 615.644900 137.037299 L 615.965700 137.429199 L 616.259900 137.845199 L 616.527300 138.285299 L 616.767900 138.749599 L 616.981800 139.237999 L 617.169000 139.750599 L 617.329500 140.287199 L 617.463200 140.848099 L 617.570100 141.432999 L 617.650300 142.042099 L 617.703800 142.675299 L 617.730500 143.332699 L 617.733900 143.670399 L 617.730300 143.985599 L 617.701100 144.599199 L 617.642900 145.190299 L 617.555600 145.758999 L 617.439200 146.305099 L 617.293700 146.828799 L 617.119000 147.329999 L 616.915300 147.808699 L 616.682400 148.264899 L 616.420500 148.698599 L 616.129400 149.109899 L 615.809300 149.498699 L 615.460000 149.864999 L 615.081600 150.208799 L 614.674200 150.530199 L 614.237600 150.828999 L 614.008400 150.969999 L 613.771300 151.106099 L 613.271800 151.365199 L 612.738400 151.606999 L 612.171200 151.831599 L 611.570100 152.038899 L 610.935300 152.228899 L 610.266500 152.401599 L 609.564000 152.557099 L 608.827600 152.695299 L 608.057300 152.816199 L 607.253300 152.919799 L 606.415400 153.006199 L 605.543600 153.075299 L 604.638000 153.127099 L 603.698600 153.161699 L 602.725300 153.178999 L 602.226000 153.181099 L 592.351900 153.181099 L 592.351900 133.493399 L 603.255800 133.493399 Z M 484.833300 129.255799 L 485.910000 129.278999 L 486.950200 129.325399 L 487.954000 129.394999 L 488.921400 129.487699 L 489.852300 129.603699 L 490.746700 129.742799 L 491.604800 129.905199 L 492.426300 130.090699 L 493.211500 130.299399 L 493.960200 130.531299 L 494.672500 130.786399 L 495.348300 131.064699 L 495.987700 131.366099 L 496.590600 131.690799 L 497.157100 132.038599 L 497.426700 132.221199 L 497.687600 132.410099 L 498.184500 132.807599 L 498.648300 133.231699 L 499.078900 133.682199 L 499.476500 134.159299 L 499.840900 134.662799 L 500.172200 135.192899 L 500.470300 135.749399 L 500.735400 136.332499 L 500.967300 136.941999 L 501.166000 137.578099 L 501.331700 138.240699 L 501.464200 138.929699 L 501.563600 139.645299 L 501.629800 140.387399 L 501.663000 141.155999 L 501.667100 141.550199 L 501.662900 141.940399 L 501.629000 142.699499 L 501.561400 143.430199 L 501.459800 144.132599 L 501.324500 144.806499 L 501.155300 145.451999 L 500.952300 146.069199 L 500.715400 146.657899 L 500.444700 147.218199 L 500.140100 147.750199 L 499.801800 148.253699 L 499.429500 148.728899 L 499.023500 149.175699 L 498.583600 149.593999 L 498.109900 149.983999 L 497.602300 150.345599 L 497.335800 150.515699 L 497.060400 150.679699 L 496.481900 150.991999 L 495.866200 151.283599 L 495.213300 151.554299 L 494.523300 151.804199 L 493.796100 152.033199 L 493.031800 152.241499 L 492.230300 152.428899 L 491.391700 152.595499 L 490.515900 152.741199 L 489.603000 152.866199 L 488.652900 152.970299 L 487.665700 153.053599 L 486.641300 153.115999 L 485.579800 153.157699 L 484.481100 153.178499 L 483.917800 153.181099 L 478.223500 153.181099 L 478.223500 129.252899 L 484.281300 129.252899 Z M 1049.345700 95.514099 L 1050.283300 95.537299 L 1051.189100 95.583699 L 1052.063200 95.653199 L 1052.905600 95.745999 L 1053.716300 95.861899 L 1054.495300 96.001099 L 1055.242600 96.163399 L 1055.958200 96.348899 L 1056.642000 96.557599 L 1057.294200 96.789499 L 1057.914600 97.044599 L 1058.503400 97.322899 L 1059.060400 97.624399 L 1059.585700 97.948999 L 1060.079300 98.296899 L 1060.314200 98.479499 L 1060.541600 98.668099 L 1060.974600 99.063699 L 1061.378800 99.483999 L 1061.754100 99.928899 L 1062.100500 100.398299 L 1062.418100 100.892399 L 1062.706800 101.411099 L 1062.966600 101.954399 L 1063.197500 102.522299 L 1063.399600 103.114899 L 1063.572800 103.731999 L 1063.717200 104.373699 L 1063.832700 105.040099 L 1063.919300 105.731099 L 1063.977000 106.446599 L 1064.005900 107.186799 L 1064.009500 107.566099 L 1064.005600 107.907999 L 1063.974900 108.575499 L 1063.913300 109.221499 L 1063.821100 109.845999 L 1063.698000 110.448899 L 1063.544200 111.030299 L 1063.359600 111.590199 L 1063.144300 112.128499 L 1062.898200 112.645299 L 1062.621300 113.140599 L 1062.313700 113.614399 L 1061.975300 114.066599 L 1061.606200 114.497199 L 1061.206300 114.906399 L 1060.775600 115.293999 L 1060.314200 115.659999 L 1059.822000 116.004599 L 1059.299000 116.327599 L 1058.745300 116.628999 L 1058.160800 116.908999 L 1057.545600 117.167399 L 1056.899600 117.404199 L 1056.222800 117.619599 L 1055.515300 117.813399 L 1054.777000 117.985599 L 1054.008000 118.136399 L 1053.208100 118.265599 L 1052.377600 118.373199 L 1051.516200 118.459399 L 1050.624100 118.523999 L 1049.701300 118.566999 L 1048.747600 118.588599 L 1048.259300 118.591299 L 1036.628400 118.591299 L 1036.628400 95.511199 L 1048.865100 95.511199 Z M 605.069200 95.514099 L 606.006700 95.537299 L 606.912600 95.583699 L 607.786700 95.653199 L 608.629100 95.745999 L 609.439800 95.861899 L 610.218800 96.001099 L 610.966100 96.163399 L 611.681600 96.348899 L 612.365500 96.557599 L 613.017600 96.789499 L 613.638100 97.044599 L 614.226800 97.322899 L 614.783900 97.624399 L 615.309200 97.948999 L 615.802800 98.296899 L 616.037700 98.479499 L 616.265100 98.668099 L 616.698100 99.063699 L 617.102300 99.483999 L 617.477600 99.928899 L 617.824000 100.398299 L 618.141500 100.892399 L 618.430200 101.411099 L 618.690100 101.954399 L 618.921000 102.522299 L 619.123100 103.114899 L 619.296300 103.731999 L 619.440700 104.373699 L 619.556100 105.040099 L 619.642700 105.731099 L 619.700500 106.446599 L 619.729300 107.186799 L 619.733000 107.566099 L 619.729100 107.907999 L 619.698300 108.575499 L 619.636800 109.221499 L 619.544500 109.845999 L 619.421500 110.448899 L 619.267700 111.030299 L 619.083100 111.590199 L 618.867800 112.128499 L 618.621700 112.645299 L 618.344800 113.140599 L 618.037200 113.614399 L 617.698800 114.066599 L 617.329700 114.497199 L 616.929800 114.906399 L 616.499100 115.293999 L 616.037700 115.659999 L 615.545500 116.004599 L 615.022500 116.327599 L 614.468800 116.628999 L 613.884300 116.908999 L 613.269100 117.167399 L 612.623100 117.404199 L 611.946300 117.619599 L 611.238800 117.813399 L 610.500500 117.985599 L 609.731400 118.136399 L 608.931600 118.265599 L 608.101000 118.373199 L 607.239700 118.459399 L 606.347600 118.523999 L 605.424700 118.566999 L 604.471100 118.588599 L 603.982800 118.591299 L 592.351900 118.591299 L 592.351900 95.511199 L 604.588500 95.511199 Z" transform="scale(1.000000,1.000000) translate(33.875000,113.220001)" fill="#ffffff" opacity="1.000000"></path>
    </g>
</svg>