<svg xmlns="http://www.w3.org/2000/svg" width="251.295" height="33.338" viewBox="4.89 3.316 251.295 33.338" enable-background="new 4.89 3.316 251.295 33.338"><path fill="#0068B4" d="M54.242 28.798h9.227v7.032H54.24v-7.032zM39.86 35.83V9.932h9.57v3.227s2.46-4.046 7.1-4.046c.547 0 1.83.03 2.195.068v9.94c-4.947 0-8.476 2.196-8.476 6.632V35.83H39.86zm181.216 0v-6.15l12.818-11.458h-12.818v-8.29h23.39v7.747l-12.505 11.138h12.507v7.013h-23.39zm-12.724.824c-6.83 0-8.91-1.408-8.91-6.037v-19.56l4.87-6.604h5.515v5.48h7.898v7.965h-7.898v9.566c0 2.722 1.924 3.09 4.004 3.09 1.444 0 2.675-.118 3.577-.27l-.25 5.427c-1.784.386-5.516.944-8.805.944m-55.077-.824v-14.7c0-2.403-1.293-3.727-3.635-3.727-2.62 0-4.186 1.512-4.186 4.04V35.83H135.07V3.316h10.385v11.036c.95-3.383 5.27-5.24 9.295-5.24 5.995 0 8.91 2.3 8.91 7.04V35.83h-10.385zm-32.712.824c-9.44 0-13.47-4.14-13.47-13.836 0-10.125 3.94-13.706 15.07-13.706 3.18 0 6.892.84 9.23 1.68v8.257c-1.766-.444-4.347-1.012-6.77-1.012-3.534 0-7.147.688-7.147 5.78 0 4.84 3.237 5.506 6.74 5.506 2.394 0 4.646-.318 7.18-1.022v6.377c-3.113 1.27-6.934 1.974-10.833 1.974m-29.49 0c-3.88 0-8.222-.282-12.924-.83v-6.77c1.573.25 4.587.583 10.55.583 1.83 0 4.593 0 4.593-2.945 0-2.527-1.36-2.998-4.045-2.998h-2.872c-5.568 0-9.503-.713-9.503-9.96 0-8.118 5.458-9.776 13.653-9.776 4.707 0 10.15.678 12.475.996v8.18l-1.756-.152c-2.34-.22-4.99-.464-8.07-.464-2.95 0-5.6.23-5.6 3.04 0 2.413 2.237 2.725 4.187 2.725 9.635 0 12.24 1.062 12.24 8.544 0 8.305-4.352 9.827-12.928 9.827M4.89 35.83V4.776h15.076c6 0 9.644.792 12.173 2.648 3.033 2.22 4.446 6.073 4.446 12.105 0 10.816-4.64 16.3-13.794 16.3H4.89zm10.39-7.6h4.138c5.964 0 6.46-4.024 6.46-7.783 0-5.23-1.534-6.746-6.83-6.746h-3.77v14.53zm166.37 8.226c-8.612 0-14.346-1.626-14.346-9.597V9.733h10.39V25.81c0 2.88 1.276 4.276 3.91 4.276 2.626 0 3.91-1.396 3.91-4.275V9.735h10.384V26.86c-.002 8.454-7.207 9.596-14.248 9.596m69.047-24.444v1.33c1.105 0 1.59-.2 1.59-.68 0-.42-.312-.708-.996-.708l-.593.058zm-.032 2.1v1.878h-1.08v-4.66c.423-.09 1.022-.146 1.79-.146.885 0 1.28.146 1.625.344.25.198.454.568.454 1.022 0 .516-.4.97-.97 1.142.46.167.713.51.854 1.136.142.71.23.996.34 1.163h-1.163c-.146-.166-.23-.593-.37-1.135-.09-.51-.37-.74-.97-.74h-.51v-.002zm.74-4.29c-2.08 0-3.612 1.673-3.612 3.727 0 2.074 1.533 3.72 3.64 3.72 2.048 0 3.554-1.646 3.554-3.7 0-2.074-1.507-3.748-3.58-3.748m0-.943c2.698 0 4.778 2.074 4.778 4.67 0 2.638-2.08 4.718-4.78 4.718-2.673 0-4.806-2.08-4.806-4.718 0-2.596 2.13-4.67 4.806-4.67"/></svg>