<?xml version="1.0" encoding="utf-8"?>
<!-- Generator: Adobe Illustrator 22.1.0, SVG Export Plug-In . SVG Version: 6.00 Build 0)  -->
<svg version="1.1" id="Layer_1" xmlns="http://www.w3.org/2000/svg" xmlns:xlink="http://www.w3.org/1999/xlink" x="0px" y="0px"
	 viewBox="0 0 511 207" style="enable-background:new 0 0 511 207;" xml:space="preserve">
<style type="text/css">
	.st0{fill:#ED6B06;}
	.st1{fill:#FFFFFF;}
</style>
<g>
	<path class="st0" d="M42.4,41.2h119.2c0.6,0,1,0.4,1,1v119.2c0,0.6-0.4,1-1,1H42.4c-0.6,0-1-0.4-1-1V42.2
		C41.4,41.7,41.8,41.2,42.4,41.2z"/>
</g>
<g>
	<path class="st1" d="M118.6,80c0.6-0.1,1.6-0.2,2.5-0.1l0.3,0l0.2-0.2c2.7-3.1,3.4-6.5,2-9.1c-1-1.9-3.1-2.9-5.4-2.7l0,0
		c-0.2,0-0.5,0.1-0.8,0.1c-4.5,1.1-7.4,4.5-9.6,6.9c-1.2,1.3-2.2,2.4-3,2.8c-0.2,0.1-0.3,0.1-0.4,0.1c-0.5,0.1-0.8-0.6-1.4-2.2
		c-1.2-3.5-2.9-5.1-5-4.8c-3,0.4-5.4,4.6-5.7,5.1c-1.9,3.5-2.9,7.2-3.6,10c-0.5,2-1,4-1.6,4.3c0,0-0.1,0-0.1,0
		c-0.3,0-0.9-0.5-1.6-1.5c-1.5-2.4-3-3.4-4.6-3.2c-2.8,0.4-4.5,4.8-4.9,6.1c-6,18.5,3,32.1,6.2,33.3l0.2-0.8
		C92.3,87.2,111,81,118.6,80z"/>
	<path class="st1" d="M129.4,90.6c-1.2-3-5-4.7-7.8-4.8c-0.7,0-1.6,0-2.7,0.1c-8.6,1.1-24.5,8.9-33.7,48.4l-0.1,0.6
		c4.4,0.9,12.2-0.7,18-3.2c5.4-2.3,13-8.1,13.1-13.8c0.1-3.1-2-5.7-6.3-7.8c-0.1-0.1-0.3-0.1-0.5-0.2c-1.4-0.6-1.6-0.9-1.6-1
		c0-0.2,0.5-0.6,2.8-1.1c6.4-1.6,13.2-5.2,15.4-7.5C130.3,95.9,130.3,92.6,129.4,90.6z"/>
</g>
<g>
	<path class="st1" d="M204.1,70.3c0-0.4,0.4-0.8,0.8-0.8l25.5,0c10.1,0,17.8,7.1,17.8,16.8c0,5.3-2.3,9.6-6.2,11.9
		c-0.6,0.3-0.5,1.2,0.2,1.4c7.3,2.2,11,8,11,15.1c0,11.2-8.7,19.3-20.6,19.3l-27.6,0c-0.4,0-0.8-0.4-0.8-0.8L204.1,70.3z
		 M227.6,95.3c4.5,0,7.9-3.1,7.9-7.2c0-3.9-3.4-6.9-7.8-6.9l-9,0c-0.4,0-0.8,0.4-0.8,0.8l0,12.5c0,0.4,0.4,0.8,0.8,0.8L227.6,95.3z
		 M230.2,122.4c5.6,0,9.5-3.6,9.5-8.6c0-4.5-3.8-8-9.6-8l-11.4,0c-0.4,0-0.8,0.4-0.8,0.8l0,15c0,0.4,0.4,0.8,0.8,0.8L230.2,122.4z"
		/>
	<path class="st1" d="M299.1,68.3c19,0,34.5,14.5,34.5,33.5c0,19.2-15.6,33.6-34.5,33.6c-19.1,0-34.6-14.4-34.6-33.6
		C264.5,82.8,280,68.3,299.1,68.3z M299.1,122.7c11.9,0,20.7-9,20.7-21c0-11.8-8.8-20.8-20.7-20.8c-11.9,0-20.8,9-20.8,20.8
		C278.3,113.7,287.2,122.7,299.1,122.7z"/>
	<path class="st1" d="M350.8,69.5l42.2,0c0.4,0,0.8,0.4,0.8,0.8l0,10.9c0,0.4-0.4,0.8-0.8,0.8l-28.5,0c-0.4,0-0.8,0.4-0.8,0.8
		l0,11.1c0,0.4,0.4,0.8,0.8,0.8l19.3,0c0.4,0,0.8,0.4,0.8,0.8l0,10.6c0,0.4-0.4,0.8-0.8,0.8l-19.3,0c-0.4,0-0.8,0.4-0.8,0.8l0,13.1
		c0,0.4,0.4,0.8,0.8,0.8l29.2,0c0.4,0,0.8,0.4,0.8,0.8l0,10.9c0,0.4-0.4,0.8-0.8,0.8l-42.9,0c-0.4,0-0.8-0.4-0.8-0.8l0-63
		C350,69.8,350.4,69.5,350.8,69.5z"/>
	<g>
		<path class="st1" d="M413.7,69.5h11.5c0.2,0,0.5,0.1,0.6,0.3l29.3,38c0.5,0.6,1.4,0.3,1.4-0.5v-37c0-0.4,0.4-0.8,0.8-0.8h12.2
			c0.4,0,0.8,0.4,0.8,0.8v63c0,0.4-0.4,0.8-0.8,0.8H459c-0.2,0-0.5-0.1-0.6-0.3l-30.3-39.1c-0.5-0.6-1.4-0.3-1.4,0.5v38.1
			c0,0.4-0.4,0.8-0.8,0.8h-12.2c-0.4,0-0.8-0.4-0.8-0.8v-63C412.9,69.8,413.2,69.5,413.7,69.5z"/>
	</g>
</g>
</svg>
