<?xml version="1.0" encoding="UTF-8" standalone="yes"?>
<!DOCTYPE svg PUBLIC "-//W3C//DTD SVG 1.1//EN" "http://www.w3.org/Graphics/SVG/1.1/DTD/svg11.dtd">

<svg width="1574" height="499" viewBox="0 0 1574 499" xmlns="http://www.w3.org/2000/svg" xmlns:xlink="http://www.w3.org/1999/xlink" version="1.1" baseProfile="full">
    <g transform="scale(1,-1) translate(0,-499)">
        <path d="M 1505.249929 271.559899 L 0.999929 271.559899 L 0.999929 0.999999 L 1505.249929 0.999999 Z M 1284.245129 177.540999 L 1283.373329 177.602499 L 1282.538529 177.725599 L 1281.740629 177.910199 L 1280.979529 178.156299 L 1280.255529 178.463899 L 1279.568329 178.832999 L 1278.918029 179.263699 L 1278.606729 179.502099 L 1278.309629 179.756599 L 1277.773029 180.315999 L 1277.312929 180.942599 L 1276.929629 181.636399 L 1276.622929 182.397399 L 1276.392929 183.225599 L 1276.239629 184.120999 L 1276.162929 185.083699 L 1276.153329 185.590199 L 1276.162929 186.111299 L 1276.239629 187.100499 L 1276.392929 188.018599 L 1276.622929 188.865699 L 1276.929629 189.641899 L 1277.312929 190.346999 L 1277.773029 190.981199 L 1278.309629 191.544399 L 1278.606729 191.799399 L 1278.918029 192.037799 L 1279.568329 192.468399 L 1280.255529 192.837599 L 1280.979529 193.145199 L 1281.740629 193.391299 L 1282.538529 193.575899 L 1283.373329 193.698899 L 1284.245129 193.760499 L 1284.694829 193.768099 L 1285.180729 193.759599 L 1286.114929 193.691499 L 1286.999029 193.555199 L 1287.832929 193.350699 L 1288.616629 193.078099 L 1289.350129 192.737399 L 1290.033529 192.328499 L 1290.666829 191.851399 L 1290.964629 191.587299 L 1291.247029 191.308399 L 1291.757229 190.711999 L 1292.194529 190.064599 L 1292.558929 189.366099 L 1292.850429 188.616399 L 1293.069029 187.815699 L 1293.214829 186.963799 L 1293.287729 186.060799 L 1293.296829 185.590199 L 1293.287629 185.134199 L 1293.213729 184.257699 L 1293.066129 183.428499 L 1292.844629 182.646699 L 1292.549329 181.912199 L 1292.180129 181.224999 L 1291.737229 180.585199 L 1291.220429 179.992599 L 1290.934329 179.714099 L 1290.633029 179.449999 L 1289.995129 178.972999 L 1289.309829 178.564099 L 1288.577229 178.223399 L 1287.797329 177.950799 L 1286.970029 177.746299 L 1286.095429 177.609999 L 1285.173529 177.541899 L 1284.694829 177.533299 Z M 1259.682529 177.541599 L 1258.763429 177.607899 L 1257.894529 177.740399 L 1257.075729 177.939199 L 1256.307229 178.204199 L 1255.588829 178.535499 L 1254.920529 178.932999 L 1254.302429 179.396799 L 1254.012229 179.653599 L 1253.737129 179.925199 L 1253.240229 180.508299 L 1252.814229 181.144299 L 1252.459329 181.833399 L 1252.175329 182.575499 L 1251.962429 183.370599 L 1251.820429 184.218599 L 1251.749429 185.119699 L 1251.740529 185.590199 L 1251.749429 186.075299 L 1251.820429 187.002899 L 1251.962429 187.873699 L 1252.175329 188.687699 L 1252.459329 189.444899 L 1252.814229 190.145299 L 1253.240229 190.788999 L 1253.737129 191.375799 L 1254.012229 191.647899 L 1254.302429 191.904699 L 1254.920529 192.368499 L 1255.588829 192.765999 L 1256.307229 193.097299 L 1257.075729 193.362299 L 1257.894529 193.561099 L 1258.763429 193.693599 L 1259.682529 193.759899 L 1260.160829 193.768099 L 1260.653829 193.759399 L 1261.599429 193.689299 L 1262.491129 193.549299 L 1263.328729 193.339099 L 1264.112529 193.058999 L 1264.842229 192.708699 L 1265.518029 192.288499 L 1266.139929 191.798199 L 1266.430629 191.526799 L 1266.705729 191.240899 L 1267.202629 190.635099 L 1267.628629 189.983899 L 1267.983529 189.287299 L 1268.267529 188.545199 L 1268.480429 187.757699 L 1268.622429 186.924799 L 1268.693429 186.046399 L 1268.702329 185.590199 L 1268.693329 185.141399 L 1268.621329 184.277199 L 1268.477529 183.457499 L 1268.261729 182.682299 L 1267.973929 181.951599 L 1267.614229 181.265399 L 1267.182629 180.623599 L 1266.679129 180.026399 L 1266.400329 179.744399 L 1266.106229 179.476699 L 1265.479629 178.992999 L 1264.801929 178.578399 L 1264.073129 178.232899 L 1263.293129 177.956499 L 1262.462129 177.749299 L 1261.579929 177.611099 L 1260.646629 177.541999 L 1260.160829 177.533299 Z M 203.600329 177.540999 L 202.728529 177.602499 L 201.893729 177.725599 L 201.095829 177.910199 L 200.334729 178.156299 L 199.610729 178.463899 L 198.923529 178.832999 L 198.273229 179.263699 L 197.961929 179.502099 L 197.664829 179.756599 L 197.128229 180.315999 L 196.668129 180.942599 L 196.284829 181.636399 L 195.978129 182.397399 L 195.748129 183.225599 L 195.594829 184.120999 L 195.518129 185.083699 L 195.508529 185.590199 L 195.518129 186.111299 L 195.594829 187.100499 L 195.748129 188.018599 L 195.978129 188.865699 L 196.284829 189.641899 L 196.668129 190.346999 L 197.128229 190.981199 L 197.664829 191.544399 L 197.961929 191.799399 L 198.273229 192.037799 L 198.923529 192.468399 L 199.610729 192.837599 L 200.334729 193.145199 L 201.095829 193.391299 L 201.893729 193.575899 L 202.728529 193.698899 L 203.600329 193.760499 L 204.050029 193.768099 L 204.535929 193.759599 L 205.470129 193.691499 L 206.354229 193.555199 L 207.188129 193.350699 L 207.971829 193.078099 L 208.705329 192.737399 L 209.388729 192.328499 L 210.022029 191.851399 L 210.319829 191.587299 L 210.602229 191.308399 L 211.112429 190.711999 L 211.549729 190.064599 L 211.914129 189.366099 L 212.205629 188.616399 L 212.424229 187.815699 L 212.570029 186.963799 L 212.642929 186.060799 L 212.652029 185.590199 L 212.642829 185.134199 L 212.568929 184.257699 L 212.421329 183.428499 L 212.199829 182.646699 L 211.904529 181.912199 L 211.535329 181.224999 L 211.092429 180.585199 L 210.575629 179.992599 L 210.289529 179.714099 L 209.988229 179.449999 L 209.350329 178.972999 L 208.665029 178.564099 L 207.932429 178.223399 L 207.152529 177.950799 L 206.325229 177.746299 L 205.450629 177.609999 L 204.528729 177.541899 L 204.050029 177.533299 Z M 179.037729 177.541599 L 178.118629 177.607899 L 177.249729 177.740399 L 176.430929 177.939199 L 175.662429 178.204199 L 174.944029 178.535499 L 174.275729 178.932999 L 173.657629 179.396799 L 173.367429 179.653599 L 173.092329 179.925199 L 172.595429 180.508299 L 172.169429 181.144299 L 171.814529 181.833399 L 171.530529 182.575499 L 171.317629 183.370599 L 171.175629 184.218599 L 171.104629 185.119699 L 171.095729 185.590199 L 171.104629 186.075299 L 171.175629 187.002899 L 171.317629 187.873699 L 171.530529 188.687699 L 171.814529 189.444899 L 172.169429 190.145299 L 172.595429 190.788999 L 173.092329 191.375799 L 173.367429 191.647899 L 173.657629 191.904699 L 174.275729 192.368499 L 174.944029 192.765999 L 175.662429 193.097299 L 176.430929 193.362299 L 177.249729 193.561099 L 178.118629 193.693599 L 179.037729 193.759899 L 179.516029 193.768099 L 180.009129 193.759399 L 180.954629 193.689299 L 181.846329 193.549299 L 182.683929 193.339099 L 183.467729 193.058999 L 184.197429 192.708699 L 184.873229 192.288499 L 185.495129 191.798199 L 185.785829 191.526799 L 186.060929 191.240899 L 186.557829 190.635099 L 186.983829 189.983899 L 187.338729 189.287299 L 187.622729 188.545199 L 187.835629 187.757699 L 187.977629 186.924799 L 188.048629 186.046399 L 188.057529 185.590199 L 188.048529 185.141399 L 187.976529 184.277199 L 187.832729 183.457499 L 187.616929 182.682299 L 187.329129 181.951599 L 186.969429 181.265399 L 186.537829 180.623599 L 186.034329 180.026399 L 185.755529 179.744399 L 185.461429 179.476699 L 184.834829 178.992999 L 184.157129 178.578399 L 183.428329 178.232899 L 182.648329 177.956499 L 181.817329 177.749299 L 180.935129 177.611099 L 180.001829 177.541999 L 179.516029 177.533299 Z M 694.519329 78.794599 L 693.265629 78.817699 L 692.030429 78.863899 L 690.813629 78.933099 L 689.615329 79.025399 L 688.435529 79.140699 L 687.274129 79.279099 L 686.131229 79.440599 L 685.006729 79.625199 L 683.900729 79.832899 L 682.813129 80.063599 L 681.744029 80.317399 L 680.693429 80.594199 L 679.661229 80.894199 L 678.647529 81.217199 L 677.652229 81.563199 L 676.675429 81.932399 L 675.717029 82.324599 L 674.777129 82.739899 L 673.855729 83.178199 L 672.952729 83.639699 L 672.068229 84.124199 L 671.202129 84.631699 L 670.354529 85.162399 L 669.525329 85.716099 L 668.714629 86.292899 L 667.922429 86.892799 L 667.148629 87.515699 L 666.393329 88.161699 L 665.656429 88.830799 L 664.938029 89.522899 L 664.238029 90.238099 L 663.895029 90.604399 L 663.556929 90.976099 L 662.896729 91.734499 L 662.257829 92.512999 L 661.640229 93.311599 L 661.043829 94.130399 L 660.468829 94.969199 L 659.915129 95.828199 L 659.382729 96.707299 L 658.871629 97.606499 L 658.381729 98.525799 L 657.913229 99.465199 L 657.466029 100.424799 L 657.040029 101.404399 L 656.635429 102.404199 L 656.252129 103.424099 L 655.890029 104.464099 L 655.549329 105.524199 L 655.229829 106.604399 L 654.931729 107.704699 L 654.654829 108.825199 L 654.399229 109.965699 L 654.165029 111.126399 L 653.952029 112.307199 L 653.760329 113.508099 L 653.590029 114.729099 L 653.440929 115.970299 L 653.313129 117.231499 L 653.206629 118.512899 L 653.121429 119.814299 L 653.057529 121.135899 L 653.014929 122.477599 L 652.993629 123.839399 L 652.991029 124.527899 L 652.993729 125.216299 L 653.015029 126.577799 L 653.057729 127.918899 L 653.121829 129.239599 L 653.207229 130.539899 L 653.314029 131.819799 L 653.442129 133.079299 L 653.591629 134.318299 L 653.762529 135.536999 L 653.954729 136.735199 L 654.168229 137.913099 L 654.403229 139.070499 L 654.659429 140.207499 L 654.937029 141.324099 L 655.236029 142.420299 L 655.556429 143.496099 L 655.898129 144.551499 L 656.261129 145.586399 L 656.645529 146.600999 L 657.051329 147.595099 L 657.478429 148.568899 L 657.926929 149.522199 L 658.396729 150.455099 L 658.887929 151.367599 L 659.400529 152.259699 L 659.934429 153.131399 L 660.489629 153.982699 L 661.066229 154.813599 L 661.664229 155.623999 L 662.283529 156.414099 L 662.924229 157.183699 L 663.586229 157.932999 L 663.925329 158.299899 L 664.269329 158.661499 L 664.971229 159.367499 L 665.691629 160.050799 L 666.430529 160.711299 L 667.188029 161.348999 L 667.964029 161.963999 L 668.758529 162.556199 L 669.571529 163.125499 L 670.403029 163.672199 L 671.253029 164.195999 L 672.121629 164.697099 L 673.008729 165.175399 L 673.914229 165.630899 L 674.838329 166.063599 L 675.781029 166.473599 L 676.742129 166.860799 L 677.721829 167.225199 L 678.719929 167.566799 L 679.736629 167.885699 L 680.771829 168.181799 L 681.825529 168.455099 L 682.897829 168.705599 L 683.988529 168.933399 L 685.097829 169.138399 L 686.225629 169.320599 L 687.371929 169.479999 L 688.536729 169.616599 L 689.720029 169.730499 L 690.921929 169.821599 L 692.142329 169.889999 L 693.381129 169.935499 L 694.638529 169.958299 L 695.274229 169.961099 L 695.909829 169.958299 L 697.167029 169.935299 L 698.405429 169.889399 L 699.625029 169.820499 L 700.825929 169.728699 L 702.008129 169.613999 L 703.171529 169.476199 L 704.316129 169.315599 L 705.442029 169.131899 L 706.549229 168.925399 L 707.637629 168.695799 L 708.707229 168.443299 L 709.758129 168.167899 L 710.790229 167.869499 L 711.803629 167.548199 L 712.798229 167.203899 L 713.774129 166.836599 L 714.731229 166.446399 L 715.669529 166.033299 L 716.589129 165.597099 L 717.490029 165.138099 L 718.372129 164.656099 L 719.235529 164.151099 L 720.080129 163.623199 L 720.905929 163.072299 L 721.713029 162.498499 L 722.501329 161.901699 L 723.270929 161.281899 L 724.021729 160.639199 L 724.753829 159.973599 L 725.467129 159.284999 L 726.161729 158.573399 L 726.502029 158.209099 L 726.837229 157.839299 L 727.491929 157.084699 L 728.125529 156.309899 L 728.738029 155.515099 L 729.329329 154.700099 L 729.899529 153.865099 L 730.448729 153.009899 L 730.976629 152.134599 L 731.483529 151.239199 L 731.969229 150.323599 L 732.433929 149.387999 L 732.877429 148.432199 L 733.299829 147.456399 L 733.701029 146.460399 L 734.081229 145.444299 L 734.440229 144.408099 L 734.778129 143.351799 L 735.094929 142.275299 L 735.390629 141.178799 L 735.665129 140.062099 L 735.918629 138.925299 L 736.150929 137.768499 L 736.362129 136.591399 L 736.552129 135.394299 L 736.721129 134.177099 L 736.868929 132.939699 L 736.995729 131.682299 L 737.101229 130.404699 L 737.185729 129.106999 L 737.249129 127.789199 L 737.291329 126.451299 L 737.312429 125.093299 L 737.315129 124.406699 L 737.312429 123.721999 L 737.291129 122.367599 L 737.248529 121.032999 L 737.184629 119.718199 L 737.099529 118.423399 L 736.993029 117.148399 L 736.865229 115.893299 L 736.716129 114.658099 L 736.545729 113.442799 L 736.354129 112.247299 L 736.141129 111.071699 L 735.906829 109.915999 L 735.651329 108.780199 L 735.374429 107.664199 L 735.076329 106.568099 L 734.756829 105.491899 L 734.416129 104.435599 L 734.054029 103.399199 L 733.670729 102.382599 L 733.266029 101.385899 L 732.840129 100.409099 L 732.392929 99.452199 L 731.924329 98.515099 L 731.434529 97.597899 L 730.923429 96.700599 L 730.390929 95.823199 L 729.837229 94.965599 L 729.262229 94.127999 L 728.665929 93.310199 L 728.048329 92.512199 L 727.409429 91.734199 L 726.749229 90.975999 L 726.411129 90.604399 L 726.068029 90.238099 L 725.368129 89.522899 L 724.649729 88.830799 L 723.912829 88.161699 L 723.157529 87.515699 L 722.383729 86.892799 L 721.591529 86.292899 L 720.780829 85.716099 L 719.951629 85.162399 L 719.104029 84.631699 L 718.237929 84.124199 L 717.353429 83.639699 L 716.450429 83.178199 L 715.529029 82.739899 L 714.589129 82.324599 L 713.630729 81.932399 L 712.653929 81.563199 L 711.658629 81.217199 L 710.644929 80.894199 L 709.612729 80.594199 L 708.562129 80.317399 L 707.493029 80.063599 L 706.405429 79.832899 L 705.299429 79.625199 L 704.174929 79.440599 L 703.032029 79.279099 L 701.870629 79.140699 L 700.690729 79.025399 L 699.492429 78.933099 L 698.275729 78.863899 L 697.040529 78.817699 L 695.786829 78.794599 L 695.153029 78.791799 Z M 1363.003229 78.794599 L 1361.768529 78.817599 L 1360.552329 78.863699 L 1359.354729 78.932699 L 1358.175529 79.024799 L 1357.014929 79.139799 L 1355.872829 79.277899 L 1354.749229 79.438999 L 1353.644229 79.623099 L 1352.557629 79.830199 L 1351.489629 80.060299 L 1350.440129 80.313499 L 1349.409129 80.589599 L 1348.396629 80.888799 L 1347.402629 81.210899 L 1346.427129 81.556099 L 1345.470229 81.924299 L 1344.531829 82.315499 L 1343.611929 82.729799 L 1342.710529 83.166999 L 1341.827629 83.627199 L 1340.963329 84.110499 L 1340.117429 84.616799 L 1339.290129 85.146099 L 1338.481329 85.698399 L 1337.691029 86.273699 L 1336.919229 86.871999 L 1336.166029 87.493299 L 1335.431229 88.137699 L 1334.715029 88.804999 L 1334.017329 89.495399 L 1333.338129 90.208799 L 1333.005529 90.574099 L 1332.677729 90.944799 L 1332.037729 91.701299 L 1331.418329 92.477799 L 1330.819629 93.274299 L 1330.241529 94.090899 L 1329.684029 94.927599 L 1329.147229 95.784299 L 1328.631129 96.661099 L 1328.135629 97.557999 L 1327.660729 98.474799 L 1327.206529 99.411799 L 1326.772929 100.368799 L 1326.360029 101.345799 L 1325.967729 102.342899 L 1325.596129 103.360099 L 1325.245129 104.397299 L 1324.914829 105.454599 L 1324.605129 106.531899 L 1324.316029 107.629299 L 1324.047629 108.746699 L 1323.799929 109.884199 L 1323.572829 111.041699 L 1323.366329 112.219299 L 1323.180529 113.416999 L 1323.015329 114.634699 L 1322.870829 115.872499 L 1322.746929 117.130299 L 1322.643729 118.408099 L 1322.561129 119.706099 L 1322.499229 121.023999 L 1322.457929 122.362099 L 1322.437229 123.720199 L 1322.434729 124.406699 L 1322.437729 125.074599 L 1322.461629 126.396399 L 1322.509529 127.699799 L 1322.581429 128.984699 L 1322.677229 130.251099 L 1322.797029 131.499099 L 1322.940829 132.728599 L 1323.108529 133.939699 L 1323.300229 135.132299 L 1323.515829 136.306499 L 1323.755429 137.462199 L 1324.018929 138.599499 L 1324.306429 139.718299 L 1324.617929 140.818599 L 1324.953329 141.900499 L 1325.312729 142.963899 L 1325.696129 144.008899 L 1326.103429 145.035399 L 1326.534629 146.043399 L 1326.989929 147.032999 L 1327.469029 148.004199 L 1327.972229 148.956799 L 1328.499329 149.891099 L 1329.050329 150.806799 L 1329.625329 151.704099 L 1330.224329 152.582999 L 1330.847229 153.443399 L 1331.494129 154.285299 L 1332.165029 155.108799 L 1332.859829 155.913799 L 1333.578629 156.700399 L 1334.321329 157.468499 L 1334.701629 157.845599 L 1335.087329 158.217499 L 1335.872529 158.943699 L 1336.676229 159.646499 L 1337.498429 160.325899 L 1338.339229 160.981799 L 1339.198529 161.614299 L 1340.076329 162.223399 L 1340.972629 162.809099 L 1341.887429 163.371299 L 1342.820729 163.910099 L 1343.772629 164.425499 L 1344.742929 164.917499 L 1345.731829 165.385999 L 1346.739229 165.831099 L 1347.765129 166.252799 L 1348.809529 166.650999 L 1349.872529 167.025899 L 1350.954029 167.377299 L 1352.053929 167.705199 L 1353.172429 168.009799 L 1354.309529 168.290899 L 1355.465029 168.548599 L 1356.639029 168.782799 L 1357.831629 168.993699 L 1359.042729 169.181099 L 1360.272329 169.345099 L 1361.520429 169.485599 L 1362.787029 169.602799 L 1364.072229 169.696499 L 1365.375829 169.766799 L 1366.698029 169.813599 L 1368.038729 169.836999 L 1368.716029 169.839999 L 1369.566929 169.834599 L 1371.263129 169.792099 L 1372.951729 169.706899 L 1374.632729 169.579099 L 1376.306229 169.408699 L 1377.972129 169.195699 L 1379.630429 168.940199 L 1381.281129 168.641999 L 1382.924329 168.301299 L 1384.559929 167.917899 L 1386.187929 167.491999 L 1387.808429 167.023499 L 1389.421229 166.512299 L 1391.026529 165.958599 L 1392.624329 165.362299 L 1394.214429 164.723399 L 1395.006729 164.387999 L 1388.767229 149.364699 L 1388.160629 149.662899 L 1386.942929 150.230799 L 1385.719129 150.760799 L 1384.489129 151.252999 L 1383.252929 151.707399 L 1382.010629 152.123799 L 1380.762129 152.502499 L 1379.507529 152.843199 L 1378.246729 153.146099 L 1376.979829 153.411099 L 1375.706729 153.638299 L 1374.427529 153.827599 L 1373.142129 153.978999 L 1371.850629 154.092599 L 1370.552929 154.168299 L 1369.249129 154.206199 L 1368.594829 154.210899 L 1367.838629 154.202899 L 1366.354429 154.139099 L 1364.908129 154.011299 L 1363.499729 153.819599 L 1362.129129 153.563999 L 1360.796429 153.244599 L 1359.501629 152.861199 L 1358.244629 152.413999 L 1357.025429 151.902899 L 1355.844229 151.327899 L 1354.700829 150.688999 L 1353.595229 149.986199 L 1352.527629 149.219499 L 1351.497729 148.388899 L 1350.505829 147.494399 L 1349.551729 146.536099 L 1349.088829 146.032999 L 1348.637929 145.516299 L 1347.778929 144.450099 L 1346.977229 143.339799 L 1346.232729 142.185499 L 1345.545629 140.987199 L 1344.915729 139.744899 L 1344.343029 138.458599 L 1343.827629 137.128199 L 1343.369529 135.753899 L 1342.968629 134.335499 L 1342.625129 132.873099 L 1342.338729 131.366699 L 1342.109729 129.816299 L 1341.937929 128.221899 L 1341.823429 126.583399 L 1341.766129 124.900999 L 1341.758929 124.043299 L 1341.764729 123.148799 L 1341.810829 121.399899 L 1341.903129 119.704199 L 1342.041629 118.061699 L 1342.226129 116.472499 L 1342.456829 114.936499 L 1342.733729 113.453799 L 1343.056729 112.024299 L 1343.425929 110.648099 L 1343.841129 109.325099 L 1344.302629 108.055299 L 1344.810129 106.838799 L 1345.363929 105.675499 L 1345.963729 104.565399 L 1346.609729 103.508699 L 1347.301929 102.505099 L 1347.665329 102.023299 L 1348.039629 101.555599 L 1348.819829 100.664599 L 1349.641929 99.833099 L 1350.505829 99.060999 L 1351.411629 98.348299 L 1352.359329 97.694899 L 1353.348929 97.100999 L 1354.380429 96.566399 L 1355.453829 96.091299 L 1356.569029 95.675499 L 1357.726129 95.319099 L 1358.925229 95.022199 L 1360.166029 94.784599 L 1361.448829 94.606399 L 1362.773529 94.487599 L 1364.140029 94.428199 L 1364.839029 94.420799 L 1365.574229 94.425499 L 1367.048929 94.463399 L 1368.529329 94.539099 L 1370.015329 94.652699 L 1371.507129 94.804099 L 1373.004529 94.993399 L 1374.507529 95.220599 L 1376.016329 95.485599 L 1376.772829 95.632299 L 1376.772829 114.108499 L 1359.992829 114.108499 L 1359.992829 129.737599 L 1395.127829 129.737599 L 1395.127829 83.819699 L 1394.064129 83.477899 L 1391.959929 82.833299 L 1389.887029 82.240799 L 1387.845429 81.700299 L 1385.835029 81.211899 L 1383.855829 80.775599 L 1381.907829 80.391299 L 1379.991129 80.058999 L 1379.044529 79.912399 L 1378.100429 79.776699 L 1376.204529 79.531599 L 1374.298229 79.321499 L 1372.381529 79.146299 L 1370.454429 79.006299 L 1368.516929 78.901199 L 1366.568929 78.831199 L 1364.610529 78.796099 L 1363.627529 78.791799 Z M 1229.629729 80.003299 L 1260.887829 168.931299 L 1283.846729 168.931299 L 1315.225929 80.003299 L 1294.993029 80.003299 L 1288.571729 101.084299 L 1256.283929 101.084299 L 1249.862629 80.003299 Z M 1416.208929 80.003299 L 1416.208929 168.567799 L 1467.215329 168.567799 L 1467.215329 153.181099 L 1434.987929 153.181099 L 1434.987929 133.735699 L 1464.973929 133.735699 L 1464.973929 118.348999 L 1434.987929 118.348999 L 1434.987929 95.511199 L 1467.215329 95.511199 L 1467.215329 80.003299 Z M 1170.687629 80.003299 L 1170.687629 168.567799 L 1189.466729 168.567799 L 1189.466729 95.511199 L 1225.389329 95.511199 L 1225.389329 80.003299 Z M 1101.205129 80.003299 L 1101.205129 168.567799 L 1152.211429 168.567799 L 1152.211429 153.181099 L 1119.984129 153.181099 L 1119.984129 133.735699 L 1149.970129 133.735699 L 1149.970129 118.348999 L 1119.984129 118.348999 L 1119.984129 95.511199 L 1152.211429 95.511199 L 1152.211429 80.003299 Z M 1017.850229 80.003299 L 1017.850229 168.567799 L 1045.413029 168.567799 L 1046.580429 168.562599 L 1048.854729 168.520699 L 1051.048329 168.436999 L 1053.161229 168.311299 L 1055.193329 168.143799 L 1057.144829 167.934299 L 1059.015729 167.682999 L 1060.805829 167.389899 L 1062.515229 167.054799 L 1064.143929 166.677799 L 1065.692029 166.258999 L 1067.159329 165.798299 L 1068.546029 165.295699 L 1069.852029 164.751199 L 1071.077229 164.164799 L 1072.221829 163.536599 L 1072.763929 163.206699 L 1073.287529 162.865499 L 1074.284929 162.145899 L 1075.215829 161.376799 L 1076.080229 160.558299 L 1076.878129 159.690299 L 1077.609629 158.772899 L 1078.274529 157.805999 L 1078.872929 156.789699 L 1079.404929 155.723899 L 1079.870329 154.608699 L 1080.269329 153.443999 L 1080.601829 152.229799 L 1080.867729 150.966199 L 1081.067229 149.653099 L 1081.200229 148.290599 L 1081.266729 146.878599 L 1081.275029 146.154099 L 1081.271429 145.660899 L 1081.242329 144.691199 L 1081.184129 143.743699 L 1081.096729 142.818499 L 1080.980329 141.915499 L 1080.834829 141.034799 L 1080.660229 140.176299 L 1080.456429 139.339999 L 1080.223629 138.525999 L 1079.961629 137.734199 L 1079.670629 136.964699 L 1079.350429 136.217399 L 1079.001129 135.492399 L 1078.622829 134.789599 L 1078.215329 134.108999 L 1077.778729 133.450699 L 1077.549529 133.129899 L 1077.314229 132.815799 L 1076.829429 132.211499 L 1076.325429 131.638799 L 1075.802229 131.097899 L 1075.259829 130.588699 L 1074.698329 130.111099 L 1074.117629 129.665299 L 1073.517729 129.251199 L 1072.898729 128.868799 L 1072.260529 128.518099 L 1071.603129 128.199199 L 1070.926629 127.911899 L 1070.230929 127.656299 L 1069.516129 127.432499 L 1068.782029 127.240299 L 1068.028829 127.079899 L 1067.645029 127.011599 L 1067.645029 126.405799 L 1068.166729 126.285199 L 1069.182629 126.024899 L 1070.161829 125.739099 L 1071.104329 125.427699 L 1072.010129 125.090699 L 1072.879229 124.728199 L 1073.711729 124.340099 L 1074.507529 123.926499 L 1075.266629 123.487299 L 1075.989029 123.022599 L 1076.674829 122.532299 L 1077.323929 122.016399 L 1077.936329 121.474999 L 1078.512029 120.907999 L 1079.051129 120.315499 L 1079.553429 119.697399 L 1079.790929 119.378799 L 1080.020129 119.053699 L 1080.456729 118.383499 L 1080.864129 117.686899 L 1081.242529 116.963699 L 1081.591829 116.214099 L 1081.911929 115.437899 L 1082.203029 114.635299 L 1082.464929 113.806099 L 1082.697829 112.950499 L 1082.901529 112.068299 L 1083.076229 111.159599 L 1083.221729 110.224499 L 1083.338129 109.262799 L 1083.425429 108.274599 L 1083.483629 107.259899 L 1083.512729 106.218799 L 1083.516429 105.688199 L 1083.514229 105.310899 L 1083.497229 104.564099 L 1083.463029 103.827699 L 1083.411729 103.101699 L 1083.343329 102.386199 L 1083.257829 101.680999 L 1083.155229 100.986199 L 1083.035529 100.301899 L 1082.898829 99.627999 L 1082.744929 98.964499 L 1082.573929 98.311399 L 1082.385929 97.668699 L 1082.180729 97.036399 L 1081.958529 96.414499 L 1081.719129 95.803099 L 1081.462729 95.201999 L 1081.189129 94.611399 L 1080.898529 94.031199 L 1080.590729 93.461399 L 1080.265929 92.901999 L 1079.924029 92.352999 L 1079.564929 91.814399 L 1079.188829 91.286299 L 1078.795629 90.768499 L 1078.385329 90.261199 L 1077.957829 89.764199 L 1077.513329 89.277699 L 1077.051729 88.801599 L 1076.573029 88.335899 L 1076.077229 87.880699 L 1075.564329 87.435799 L 1075.034329 87.001299 L 1074.762929 86.787999 L 1074.209729 86.370599 L 1073.066529 85.575499 L 1071.874429 84.833399 L 1070.633329 84.144399 L 1069.343129 83.508299 L 1068.004029 82.925199 L 1066.616029 82.395199 L 1065.178929 81.918099 L 1063.692829 81.494099 L 1062.157829 81.122999 L 1060.573829 80.804999 L 1058.940829 80.539999 L 1057.258829 80.327999 L 1055.527929 80.168899 L 1053.747929 80.062899 L 1051.919029 80.009899 L 1050.986229 80.003299 Z M 916.988429 80.003299 L 916.988429 168.567799 L 940.674329 168.567799 L 979.141129 102.235299 L 979.565129 102.235299 L 979.352229 106.393399 L 979.085929 112.037799 L 978.944029 115.405499 L 978.830429 118.457099 L 978.745229 121.192599 L 978.688429 123.611899 L 978.660029 125.715099 L 978.656529 126.648099 L 978.656529 168.567799 L 995.557629 168.567799 L 995.557629 80.003299 L 971.690029 80.003299 L 933.162629 147.002199 L 932.617429 147.002199 L 932.887229 142.723899 L 933.224429 136.902799 L 933.404229 133.419499 L 933.548129 130.254399 L 933.656029 127.407199 L 933.728029 124.878099 L 933.763929 122.666999 L 933.768429 121.680699 L 933.768429 80.003299 Z M 847.505829 80.003299 L 847.505829 168.567799 L 898.512229 168.567799 L 898.512229 153.181099 L 866.284929 153.181099 L 866.284929 133.735699 L 896.270929 133.735699 L 896.270929 118.348999 L 866.284929 118.348999 L 866.284929 95.511199 L 898.512229 95.511199 L 898.512229 80.003299 Z M 755.670129 80.003299 L 755.670129 168.567799 L 783.475329 168.567799 L 784.150629 168.564999 L 785.487129 168.542699 L 786.804729 168.497999 L 788.103329 168.430899 L 789.383029 168.341399 L 790.643829 168.229599 L 791.885629 168.095499 L 793.108529 167.938899 L 794.312529 167.759999 L 795.497629 167.558799 L 796.663729 167.335199 L 797.810929 167.089199 L 798.939129 166.820799 L 800.048529 166.530099 L 801.138829 166.217099 L 802.210329 165.881599 L 803.262929 165.523899 L 804.296529 165.143699 L 805.311129 164.741199 L 806.306929 164.316299 L 807.283729 163.869099 L 808.241629 163.399499 L 809.180529 162.907499 L 810.100629 162.393199 L 811.001629 161.856499 L 811.883829 161.297499 L 812.747029 160.716099 L 813.591329 160.112299 L 814.416729 159.486199 L 815.223229 158.837699 L 816.010729 158.166899 L 816.779229 157.473699 L 817.156429 157.118699 L 817.528329 156.758699 L 818.254529 156.025299 L 818.957329 155.274299 L 819.636729 154.505499 L 820.292729 153.718899 L 820.925229 152.914599 L 821.534329 152.092499 L 822.119929 151.252699 L 822.682229 150.395199 L 823.221029 149.519899 L 823.736429 148.626799 L 824.228329 147.715999 L 824.696829 146.787499 L 825.141929 145.841199 L 825.563629 144.877199 L 825.961929 143.895399 L 826.336729 142.895799 L 826.688129 141.878599 L 827.016129 140.843499 L 827.320629 139.790799 L 827.601729 138.720199 L 827.859429 137.631999 L 828.093729 136.525999 L 828.304529 135.402199 L 828.491929 134.260699 L 828.655929 133.101399 L 828.796529 131.924399 L 828.913629 130.729699 L 829.007329 129.517199 L 829.077629 128.286899 L 829.124529 127.038899 L 829.147929 125.773199 L 829.150829 125.133699 L 829.147829 124.452799 L 829.123529 123.105999 L 829.074829 121.779199 L 829.001929 120.472399 L 828.904629 119.185599 L 828.783129 117.918799 L 828.637229 116.671999 L 828.467029 115.445199 L 828.272529 114.238299 L 828.053629 113.051499 L 827.810529 111.884699 L 827.543129 110.737799 L 827.251329 109.610999 L 826.935229 108.504199 L 826.594829 107.417299 L 826.230129 106.350499 L 825.841129 105.303599 L 825.427729 104.276699 L 824.990129 103.269899 L 824.528129 102.282999 L 824.041929 101.316099 L 823.531329 100.369199 L 822.996429 99.442399 L 822.437129 98.535499 L 821.853629 97.648599 L 821.245829 96.781699 L 820.613629 95.934799 L 819.957129 95.107899 L 819.276329 94.300999 L 818.571229 93.513999 L 817.841829 92.747099 L 817.088129 92.000199 L 816.702129 91.634199 L 816.310429 91.273599 L 815.510729 90.569399 L 814.689529 89.887899 L 813.846729 89.229099 L 812.982329 88.592999 L 812.096329 87.979699 L 811.188729 87.388999 L 810.259529 86.821099 L 809.308729 86.275899 L 808.336329 85.753499 L 807.342329 85.253699 L 806.326829 84.776599 L 805.289629 84.322299 L 804.230929 83.890699 L 803.150529 83.481799 L 802.048629 83.095599 L 800.925129 82.732099 L 799.780029 82.391399 L 798.613229 82.073399 L 797.424929 81.777999 L 796.215029 81.505399 L 794.983629 81.255599 L 793.730529 81.028399 L 792.455829 80.823899 L 791.159529 80.642199 L 789.841729 80.483199 L 788.502229 80.346899 L 787.141229 80.233299 L 785.758529 80.142399 L 784.354329 80.074299 L 782.928529 80.028899 L 781.481129 80.006099 L 780.749329 80.003299 Z M 573.573729 80.003299 L 573.573729 168.567799 L 601.136529 168.567799 L 602.303929 168.562599 L 604.578229 168.520699 L 606.771729 168.436999 L 608.884629 168.311299 L 610.916829 168.143799 L 612.868329 167.934299 L 614.739129 167.682999 L 616.529229 167.389899 L 618.238729 167.054799 L 619.867429 166.677799 L 621.415429 166.258999 L 622.882829 165.798299 L 624.269529 165.295699 L 625.575429 164.751199 L 626.800729 164.164799 L 627.945329 163.536599 L 628.487329 163.206699 L 629.011029 162.865499 L 630.008429 162.145899 L 630.939329 161.376799 L 631.803729 160.558299 L 632.601629 159.690299 L 633.333029 158.772899 L 633.998029 157.805999 L 634.596429 156.789699 L 635.128429 155.723899 L 635.593829 154.608699 L 635.992829 153.443999 L 636.325229 152.229799 L 636.591229 150.966199 L 636.790729 149.653099 L 636.923729 148.290599 L 636.990229 146.878599 L 636.998529 146.154099 L 636.994829 145.660899 L 636.965729 144.691199 L 636.907529 143.743699 L 636.820229 142.818499 L 636.703829 141.915499 L 636.558329 141.034799 L 636.383629 140.176299 L 636.179929 139.339999 L 635.947029 138.525999 L 635.685129 137.734199 L 635.394029 136.964699 L 635.073929 136.217399 L 634.724629 135.492399 L 634.346229 134.789599 L 633.938829 134.108999 L 633.502229 133.450699 L 633.273029 133.129899 L 633.037729 132.815799 L 632.552929 132.211499 L 632.048829 131.638799 L 631.525629 131.097899 L 630.983329 130.588699 L 630.421829 130.111099 L 629.841129 129.665299 L 629.241229 129.251199 L 628.622229 128.868799 L 627.984029 128.518099 L 627.326629 128.199199 L 626.650129 127.911899 L 625.954429 127.656299 L 625.239529 127.432499 L 624.505529 127.240299 L 623.752329 127.079899 L 623.368529 127.011599 L 623.368529 126.405799 L 623.890229 126.285199 L 624.906129 126.024899 L 625.885229 125.739099 L 626.827729 125.427699 L 627.733629 125.090699 L 628.602729 124.728199 L 629.435229 124.340099 L 630.231029 123.926499 L 630.990129 123.487299 L 631.712529 123.022599 L 632.398329 122.532299 L 633.047429 122.016399 L 633.659829 121.474999 L 634.235529 120.907999 L 634.774529 120.315499 L 635.276929 119.697399 L 635.514329 119.378799 L 635.743529 119.053699 L 636.180129 118.383499 L 636.587629 117.686899 L 636.966029 116.963699 L 637.315229 116.214099 L 637.635429 115.437899 L 637.926529 114.635299 L 638.188429 113.806099 L 638.421329 112.950499 L 638.625029 112.068299 L 638.799629 111.159599 L 638.945229 110.224499 L 639.061629 109.262799 L 639.148929 108.274599 L 639.207129 107.259899 L 639.236229 106.218799 L 639.239929 105.688199 L 639.237729 105.310899 L 639.220629 104.564099 L 639.186429 103.827699 L 639.135129 103.101699 L 639.066829 102.386199 L 638.981329 101.680999 L 638.878729 100.986199 L 638.759029 100.301899 L 638.622229 99.627999 L 638.468429 98.964499 L 638.297429 98.311399 L 638.109329 97.668699 L 637.904229 97.036399 L 637.681929 96.414499 L 637.442629 95.803099 L 637.186129 95.201999 L 636.912629 94.611399 L 636.621929 94.031199 L 636.314229 93.461399 L 635.989429 92.901999 L 635.647429 92.352999 L 635.288429 91.814399 L 634.912329 91.286299 L 634.519129 90.768499 L 634.108729 90.261199 L 633.681329 89.764199 L 633.236829 89.277699 L 632.775229 88.801599 L 632.296529 88.335899 L 631.800729 87.880699 L 631.287829 87.435799 L 630.757829 87.001299 L 630.486429 86.787999 L 629.933229 86.370599 L 628.790029 85.575499 L 627.597929 84.833399 L 626.356729 84.144399 L 625.066629 83.508299 L 623.727529 82.925199 L 622.339429 82.395199 L 620.902429 81.918099 L 619.416329 81.494099 L 617.881329 81.122999 L 616.297329 80.804999 L 614.664329 80.539999 L 612.982329 80.327999 L 611.251429 80.168899 L 609.471429 80.062899 L 607.642529 80.009899 L 606.709729 80.003299 Z M 459.445429 80.003299 L 459.445429 168.567799 L 485.251529 168.567799 L 485.813329 168.566199 L 486.923229 168.553399 L 488.014829 168.527699 L 489.088029 168.489199 L 490.142929 168.437899 L 491.179529 168.373699 L 492.197729 168.296699 L 493.197629 168.206799 L 494.179229 168.104099 L 495.142429 167.988599 L 496.087229 167.860199 L 497.013829 167.718999 L 497.922029 167.564899 L 498.811829 167.397999 L 499.683329 167.218299 L 500.536529 167.025799 L 501.371329 166.820399 L 502.187829 166.602099 L 502.986029 166.371099 L 503.765829 166.127199 L 504.527329 165.870399 L 505.270429 165.600799 L 505.995229 165.318399 L 506.701729 165.023199 L 507.389829 164.715099 L 508.059629 164.394099 L 508.711129 164.060399 L 509.344229 163.713799 L 509.958929 163.354299 L 510.555429 162.981999 L 511.133529 162.596899 L 511.693229 162.198999 L 511.966229 161.995199 L 512.234829 161.788099 L 512.759329 161.363999 L 513.266929 160.926599 L 513.757529 160.475899 L 514.231329 160.011799 L 514.688129 159.534499 L 515.128029 159.043799 L 515.550929 158.539899 L 515.957029 158.022599 L 516.346129 157.491999 L 516.718429 156.948099 L 517.073729 156.390899 L 517.412129 155.820399 L 517.733529 155.236499 L 518.038129 154.639399 L 518.325729 154.028999 L 518.596429 153.405199 L 518.850229 152.768099 L 519.087029 152.117699 L 519.307029 151.454099 L 519.510029 150.777099 L 519.696129 150.086699 L 519.865329 149.383099 L 520.017629 148.666199 L 520.153029 147.935899 L 520.271429 147.192399 L 520.372929 146.435499 L 520.457529 145.665299 L 520.525229 144.881899 L 520.575929 144.085099 L 520.609829 143.274899 L 520.626729 142.451499 L 520.628829 142.034799 L 520.624629 141.548099 L 520.591029 140.584799 L 520.523829 139.634899 L 520.423029 138.698599 L 520.288629 137.775699 L 520.120629 136.866399 L 519.919029 135.970499 L 519.683829 135.088099 L 519.414929 134.219199 L 519.112529 133.363699 L 518.776529 132.521799 L 518.406929 131.693399 L 518.003729 130.878399 L 517.566929 130.076899 L 517.096429 129.288899 L 516.592429 128.514399 L 516.327829 128.132299 L 516.055529 127.754299 L 515.489929 127.013899 L 514.896529 126.294099 L 514.275129 125.594799 L 513.625829 124.916199 L 512.948529 124.258099 L 512.243429 123.620599 L 511.510329 123.003699 L 510.749329 122.407399 L 509.960329 121.831699 L 509.143529 121.276499 L 508.298729 120.741999 L 507.426029 120.227999 L 506.525429 119.734599 L 505.596929 119.261899 L 504.640429 118.809699 L 504.151729 118.591299 L 513.276229 104.980199 L 523.697429 89.518699 L 527.438629 84.017799 L 529.388429 81.176299 L 530.200129 80.003299 L 509.361429 80.003299 L 488.219829 113.987399 L 478.224429 113.987399 L 478.224429 80.003299 Z M 389.962829 80.003299 L 389.962829 168.567799 L 440.969229 168.567799 L 440.969229 153.181099 L 408.741929 153.181099 L 408.741929 133.735699 L 438.727829 133.735699 L 438.727829 118.348999 L 408.741929 118.348999 L 408.741929 95.511199 L 440.969229 95.511199 L 440.969229 80.003299 Z M 319.874529 80.003299 L 319.874529 168.567799 L 338.653529 168.567799 L 338.653529 95.511199 L 374.576129 95.511199 L 374.576129 80.003299 Z M 249.786129 80.003299 L 249.786129 168.567799 L 268.565229 168.567799 L 268.565229 95.511199 L 304.487729 95.511199 L 304.487729 80.003299 Z M 190.857329 78.793899 L 189.804529 78.810999 L 188.766629 78.845199 L 187.743729 78.896499 L 186.735629 78.964899 L 185.742529 79.050299 L 184.764229 79.152899 L 183.800929 79.272599 L 182.852529 79.409399 L 181.919029 79.563199 L 181.000429 79.734199 L 180.096729 79.922299 L 179.207929 80.127399 L 178.334029 80.349699 L 177.475129 80.588999 L 176.631029 80.845499 L 175.801829 81.118999 L 174.987629 81.409699 L 174.188229 81.717399 L 173.403829 82.042299 L 172.634329 82.384199 L 171.879729 82.743199 L 171.140029 83.119299 L 170.415229 83.512599 L 169.705329 83.922899 L 169.010329 84.350299 L 168.330229 84.794799 L 167.665029 85.256399 L 167.014829 85.735099 L 166.379429 86.230899 L 165.759029 86.743799 L 165.153429 87.273799 L 164.856229 87.545199 L 164.563229 87.820299 L 163.991129 88.379999 L 163.437329 88.952299 L 162.902129 89.537199 L 162.385329 90.134699 L 161.886929 90.744799 L 161.407029 91.367499 L 160.945629 92.002799 L 160.502629 92.650699 L 160.078129 93.311199 L 159.672129 93.984299 L 159.284529 94.669999 L 158.915329 95.368299 L 158.564629 96.079199 L 158.232429 96.802699 L 157.918629 97.538799 L 157.623329 98.287499 L 157.346429 99.048799 L 157.088029 99.822699 L 156.848129 100.609199 L 156.626629 101.408299 L 156.423629 102.219999 L 156.239029 103.044299 L 156.072929 103.881199 L 155.925229 104.730699 L 155.796029 105.592799 L 155.685329 106.467599 L 155.593029 107.354899 L 155.519229 108.254799 L 155.463829 109.167299 L 155.426929 110.092399 L 155.408429 111.030099 L 155.406129 111.503699 L 155.406129 168.567799 L 174.124629 168.567799 L 174.124629 114.350799 L 174.128629 113.716299 L 174.160829 112.479199 L 174.225229 111.284699 L 174.321729 110.132799 L 174.450529 109.023399 L 174.611429 107.956699 L 174.804529 106.932599 L 175.029729 105.950999 L 175.287229 105.012099 L 175.576829 104.115699 L 175.898629 103.261899 L 176.252629 102.450799 L 176.638829 101.682199 L 177.057229 100.956199 L 177.507729 100.272799 L 177.990529 99.631999 L 178.243929 99.327599 L 178.506629 99.033199 L 179.063629 98.472299 L 179.662829 97.948899 L 180.304129 97.462899 L 180.987529 97.014199 L 181.713029 96.602899 L 182.480629 96.229099 L 183.290429 95.892599 L 184.142229 95.593499 L 185.036229 95.331799 L 185.972329 95.107399 L 186.950629 94.920499 L 187.970929 94.770899 L 189.033429 94.658799 L 190.138029 94.583999 L 191.284729 94.546599 L 191.873929 94.541899 L 192.444429 94.546599 L 193.555929 94.584299 L 194.627829 94.659499 L 195.660229 94.772399 L 196.653129 94.922899 L 197.606529 95.110999 L 198.520429 95.336799 L 199.394829 95.600099 L 200.229629 95.901099 L 201.024929 96.239699 L 201.780729 96.615999 L 202.497029 97.029899 L 203.173829 97.481399 L 203.811029 97.970499 L 204.408729 98.497199 L 204.967029 99.061599 L 205.231229 99.357899 L 205.486529 99.664199 L 205.972829 100.308999 L 206.426729 100.996699 L 206.848129 101.727199 L 207.237129 102.500499 L 207.593729 103.316599 L 207.917929 104.175599 L 208.209729 105.077399 L 208.469029 106.021999 L 208.696029 107.009499 L 208.890529 108.039799 L 209.052629 109.112899 L 209.182229 110.228899 L 209.279529 111.387699 L 209.344329 112.589299 L 209.376829 113.833699 L 209.380829 114.471999 L 209.380829 168.567799 L 228.099329 168.567799 L 228.099329 111.261399 L 228.095029 110.650399 L 228.060729 109.442599 L 227.992129 108.253799 L 227.889129 107.083899 L 227.751929 105.932899 L 227.580329 104.800899 L 227.374529 103.687799 L 227.134329 102.593599 L 226.859829 101.518299 L 226.551029 100.461999 L 226.207929 99.424599 L 225.830529 98.406099 L 225.418729 97.406599 L 224.972729 96.425999 L 224.492329 95.464299 L 223.977629 94.521599 L 223.707429 94.057299 L 223.429129 93.598799 L 222.849629 92.701999 L 222.239629 91.832099 L 221.599029 90.989199 L 220.927929 90.173299 L 220.226329 89.384399 L 219.494229 88.622399 L 218.731529 87.887499 L 217.938329 87.179499 L 217.114629 86.498399 L 216.260429 85.844399 L 215.375629 85.217299 L 214.460329 84.617199 L 213.514529 84.044099 L 212.538229 83.497899 L 211.531329 82.978799 L 211.016429 82.729299 L 210.494829 82.487099 L 209.433729 82.025599 L 208.349029 81.594999 L 207.240629 81.194999 L 206.108629 80.825899 L 204.952829 80.487499 L 203.773529 80.179899 L 202.570429 79.902999 L 201.343729 79.656899 L 200.093429 79.441599 L 198.819429 79.256999 L 197.521729 79.103199 L 196.200329 78.980199 L 194.855329 78.887899 L 193.486629 78.826399 L 192.094329 78.795599 L 191.389229 78.791799 Z M 39.036429 80.003299 L 39.036429 168.567799 L 64.600229 168.567799 L 85.560129 100.841999 L 85.923629 100.841999 L 108.155629 168.567799 L 133.719329 168.567799 L 133.719329 80.003299 L 116.212429 80.003299 L 116.212429 121.922999 L 116.213829 122.679299 L 116.225229 124.277099 L 116.247929 125.988399 L 116.281929 127.813299 L 116.303229 128.768299 L 116.317129 129.303099 L 116.359729 130.673699 L 116.422229 132.445599 L 116.504529 134.618799 L 116.797329 141.807699 L 117.121029 149.364699 L 116.575829 149.364699 L 93.738129 80.003299 L 76.534029 80.003299 L 55.210729 149.485899 L 54.665529 149.485899 L 54.935229 144.405899 L 55.366929 135.569099 L 55.596229 130.099399 L 55.704129 127.004199 L 55.776029 124.350199 L 55.812029 122.137199 L 55.816529 121.196099 L 55.816529 80.003299 Z M 1280.123129 129.604999 L 1276.534029 141.191699 L 1275.524029 144.464799 L 1274.757329 146.959799 L 1274.233929 148.676799 L 1274.063429 149.243599 L 1273.793229 150.157899 L 1273.312329 151.838899 L 1272.911029 153.323099 L 1272.589229 154.610399 L 1272.458129 155.180199 L 1272.179129 154.121699 L 1271.446529 151.469599 L 1270.481029 148.103699 L 1269.282729 144.024199 L 1267.048729 136.566699 L 1263.255029 124.125599 L 1261.008929 116.834499 L 1284.089029 116.834499 Z M 695.849929 94.549199 L 697.210629 94.607599 L 698.527529 94.724199 L 699.800429 94.899199 L 701.029529 95.132499 L 702.214729 95.424199 L 703.355929 95.774199 L 704.453329 96.182499 L 705.506829 96.649099 L 706.516429 97.174099 L 707.482129 97.757399 L 708.403929 98.398999 L 709.281829 99.098899 L 710.115829 99.857199 L 710.905929 100.673899 L 711.652129 101.548799 L 712.354429 102.482099 L 713.012929 103.473699 L 713.627429 104.523599 L 714.198029 105.631899 L 714.724829 106.798499 L 715.207629 108.023399 L 715.646629 109.306599 L 716.041629 110.648199 L 716.392829 112.048099 L 716.700129 113.506399 L 716.963429 115.022899 L 717.182929 116.597799 L 717.358529 118.231099 L 717.490229 119.922599 L 717.578029 121.672499 L 717.621929 123.480699 L 717.627329 124.406699 L 717.621929 125.334599 L 717.578229 127.146499 L 717.490929 128.899899 L 717.359929 130.594899 L 717.185329 132.231499 L 716.967029 133.809499 L 716.705129 135.329199 L 716.399429 136.790399 L 716.050229 138.193099 L 715.657329 139.537399 L 715.220729 140.823299 L 714.740429 142.050699 L 714.216529 143.219699 L 713.649029 144.330199 L 713.037729 145.382199 L 712.382929 146.375899 L 711.684329 147.310999 L 710.942129 148.187699 L 710.156329 149.005999 L 709.326829 149.765799 L 708.453629 150.467199 L 707.536829 151.110099 L 706.576329 151.694599 L 705.572129 152.220699 L 704.524329 152.688199 L 703.432929 153.097399 L 702.297829 153.448099 L 701.119029 153.740299 L 699.896529 153.974099 L 698.630429 154.149399 L 697.320729 154.266299 L 695.967329 154.324799 L 695.274229 154.332099 L 694.579129 154.324699 L 693.221429 154.265799 L 691.906629 154.147999 L 690.635029 153.971199 L 689.406429 153.735499 L 688.220929 153.440899 L 687.078429 153.087399 L 685.979029 152.674899 L 684.922729 152.203599 L 683.909429 151.673299 L 682.939229 151.084099 L 682.012129 150.435899 L 681.128129 149.728899 L 680.287129 148.962899 L 679.489229 148.137999 L 678.734329 147.254199 L 678.373029 146.790199 L 678.022729 146.311699 L 677.355429 145.311899 L 676.732629 144.255099 L 676.154229 143.141299 L 675.620429 141.970399 L 675.131129 140.742599 L 674.686229 139.457599 L 674.285829 138.115699 L 673.929929 136.716699 L 673.618529 135.260699 L 673.351629 133.747699 L 673.129229 132.177699 L 672.951229 130.550599 L 672.817729 128.866499 L 672.728829 127.125399 L 672.684329 125.327199 L 672.678729 124.406699 L 672.684229 123.486299 L 672.728229 121.688399 L 672.816329 119.947699 L 672.948329 118.264299 L 673.124429 116.638199 L 673.344429 115.069299 L 673.608529 113.557699 L 673.916629 112.103399 L 674.268729 110.706299 L 674.664829 109.366499 L 675.105029 108.083999 L 675.589129 106.858699 L 676.117329 105.690699 L 676.689429 104.579899 L 677.305629 103.526399 L 677.965829 102.530199 L 678.312429 102.053599 L 678.670029 101.591399 L 679.417829 100.711199 L 680.209029 99.889599 L 681.043929 99.126699 L 681.922329 98.422499 L 682.844229 97.776899 L 683.809629 97.190099 L 684.818629 96.661899 L 685.871229 96.192399 L 686.967229 95.781699 L 688.106929 95.429499 L 689.290029 95.136099 L 690.516729 94.901399 L 691.787029 94.725299 L 693.100729 94.607999 L 694.458029 94.549299 L 695.153029 94.541899 Z M 1048.006229 133.495699 L 1048.927429 133.514099 L 1049.815729 133.551099 L 1050.671129 133.606399 L 1051.493729 133.680299 L 1052.283329 133.772499 L 1053.040129 133.883299 L 1053.763929 134.012499 L 1054.454929 134.160099 L 1055.112929 134.326299 L 1055.738129 134.510799 L 1056.330429 134.713899 L 1056.889829 134.935399 L 1057.416329 135.175299 L 1057.909929 135.433699 L 1058.370729 135.710599 L 1058.588729 135.855899 L 1058.799329 136.006599 L 1059.200329 136.325999 L 1059.574729 136.669599 L 1059.922329 137.037299 L 1060.243229 137.429199 L 1060.537329 137.845199 L 1060.804729 138.285299 L 1061.045429 138.749599 L 1061.259329 139.237999 L 1061.446429 139.750599 L 1061.606929 140.287199 L 1061.740629 140.848099 L 1061.847529 141.432999 L 1061.927829 142.042099 L 1061.981229 142.675299 L 1062.008029 143.332699 L 1062.011329 143.670399 L 1062.007729 143.985599 L 1061.978629 144.599199 L 1061.920429 145.190299 L 1061.833029 145.758999 L 1061.716629 146.305099 L 1061.571129 146.828799 L 1061.396529 147.329999 L 1061.192729 147.808699 L 1060.959929 148.264899 L 1060.697929 148.698599 L 1060.406929 149.109899 L 1060.086729 149.498699 L 1059.737429 149.864999 L 1059.359129 150.208799 L 1058.951629 150.530199 L 1058.515029 150.828999 L 1058.285829 150.969999 L 1058.048729 151.106099 L 1057.549229 151.365199 L 1057.015829 151.606999 L 1056.448629 151.831599 L 1055.847629 152.038899 L 1055.212729 152.228899 L 1054.544029 152.401599 L 1053.841429 152.557099 L 1053.105029 152.695299 L 1052.334829 152.816199 L 1051.530729 152.919799 L 1050.692829 153.006199 L 1049.821029 153.075299 L 1048.915529 153.127099 L 1047.976029 153.161699 L 1047.002829 153.178999 L 1046.503429 153.181099 L 1036.629329 153.181099 L 1036.629329 133.493399 L 1047.533329 133.493399 Z M 783.347529 95.518299 L 784.990629 95.575199 L 786.580829 95.688999 L 788.118029 95.859799 L 789.602129 96.087399 L 791.033329 96.371899 L 792.411429 96.713399 L 793.736529 97.111799 L 795.008729 97.567099 L 796.227829 98.079199 L 797.393929 98.648299 L 798.507029 99.274399 L 799.567129 99.957299 L 800.574229 100.697099 L 801.528329 101.493799 L 802.429429 102.347499 L 803.277529 103.257999 L 804.072629 104.225499 L 804.814729 105.249899 L 805.503829 106.331199 L 806.139829 107.469399 L 806.722929 108.664499 L 807.252929 109.916499 L 807.730029 111.225399 L 808.154029 112.591299 L 808.525129 114.013999 L 808.843129 115.493699 L 809.108129 117.030199 L 809.320129 118.623699 L 809.479229 120.274099 L 809.585229 121.981399 L 809.638229 123.745599 L 809.644829 124.648999 L 809.638729 125.533699 L 809.589429 127.261199 L 809.491029 128.932999 L 809.343329 130.549099 L 809.146529 132.109499 L 808.900429 133.614099 L 808.605029 135.062999 L 808.260529 136.456099 L 807.866829 137.793599 L 807.423829 139.075299 L 806.931629 140.301299 L 806.390229 141.471499 L 805.799529 142.586099 L 805.159729 143.644899 L 804.470629 144.647999 L 803.732329 145.595299 L 802.944829 146.486899 L 802.108129 147.322799 L 801.222129 148.102999 L 800.287029 148.827499 L 799.302629 149.496199 L 798.269029 150.109199 L 797.186229 150.666399 L 796.054129 151.167999 L 794.872829 151.613799 L 793.642429 152.003899 L 792.362729 152.338199 L 791.033729 152.616899 L 789.655629 152.839799 L 788.228229 153.006999 L 786.751729 153.118399 L 785.225929 153.174199 L 784.444529 153.181099 L 774.449229 153.181099 L 774.449229 95.511199 L 782.506029 95.511199 Z M 603.729729 133.495699 L 604.650929 133.514099 L 605.539229 133.551099 L 606.394629 133.606399 L 607.217129 133.680299 L 608.006829 133.772499 L 608.763529 133.883299 L 609.487429 134.012499 L 610.178329 134.160099 L 610.836429 134.326299 L 611.461629 134.510799 L 612.053929 134.713899 L 612.613329 134.935399 L 613.139829 135.175299 L 613.633429 135.433699 L 614.094129 135.710599 L 614.312229 135.855899 L 614.522729 136.006599 L 614.923829 136.325999 L 615.298229 136.669599 L 615.645829 137.037299 L 615.966629 137.429199 L 616.260829 137.845199 L 616.528229 138.285299 L 616.768829 138.749599 L 616.982729 139.237999 L 617.169929 139.750599 L 617.330429 140.287199 L 617.464129 140.848099 L 617.571029 141.432999 L 617.651229 142.042099 L 617.704729 142.675299 L 617.731429 143.332699 L 617.734829 143.670399 L 617.731229 143.985599 L 617.702029 144.599199 L 617.643829 145.190299 L 617.556529 145.758999 L 617.440129 146.305099 L 617.294629 146.828799 L 617.119929 147.329999 L 616.916229 147.808699 L 616.683329 148.264899 L 616.421429 148.698599 L 616.130329 149.109899 L 615.810229 149.498699 L 615.460929 149.864999 L 615.082529 150.208799 L 614.675129 150.530199 L 614.238529 150.828999 L 614.009329 150.969999 L 613.772229 151.106099 L 613.272729 151.365199 L 612.739329 151.606999 L 612.172129 151.831599 L 611.571029 152.038899 L 610.936229 152.228899 L 610.267429 152.401599 L 609.564929 152.557099 L 608.828529 152.695299 L 608.058229 152.816199 L 607.254229 152.919799 L 606.416329 153.006199 L 605.544529 153.075299 L 604.638929 153.127099 L 603.699529 153.161699 L 602.726229 153.178999 L 602.226929 153.181099 L 592.352829 153.181099 L 592.352829 133.493399 L 603.256729 133.493399 Z M 484.834229 129.255799 L 485.910929 129.278999 L 486.951129 129.325399 L 487.954929 129.394999 L 488.922329 129.487699 L 489.853229 129.603699 L 490.747629 129.742799 L 491.605729 129.905199 L 492.427229 130.090699 L 493.212429 130.299399 L 493.961129 130.531299 L 494.673429 130.786399 L 495.349229 131.064699 L 495.988629 131.366099 L 496.591529 131.690799 L 497.158029 132.038599 L 497.427629 132.221199 L 497.688529 132.410099 L 498.185429 132.807599 L 498.649229 133.231699 L 499.079829 133.682199 L 499.477429 134.159299 L 499.841829 134.662799 L 500.173129 135.192899 L 500.471229 135.749399 L 500.736329 136.332499 L 500.968229 136.941999 L 501.166929 137.578099 L 501.332629 138.240699 L 501.465129 138.929699 L 501.564529 139.645299 L 501.630729 140.387399 L 501.663929 141.155999 L 501.668029 141.550199 L 501.663829 141.940399 L 501.629929 142.699499 L 501.562329 143.430199 L 501.460729 144.132599 L 501.325429 144.806499 L 501.156229 145.451999 L 500.953229 146.069199 L 500.716329 146.657899 L 500.445629 147.218199 L 500.141029 147.750199 L 499.802729 148.253699 L 499.430429 148.728899 L 499.024429 149.175699 L 498.584529 149.593999 L 498.110829 149.983999 L 497.603229 150.345599 L 497.336729 150.515699 L 497.061329 150.679699 L 496.482829 150.991999 L 495.867129 151.283599 L 495.214229 151.554299 L 494.524229 151.804199 L 493.797029 152.033199 L 493.032729 152.241499 L 492.231229 152.428899 L 491.392629 152.595499 L 490.516829 152.741199 L 489.603929 152.866199 L 488.653829 152.970299 L 487.666629 153.053599 L 486.642229 153.115999 L 485.580729 153.157699 L 484.482029 153.178499 L 483.918729 153.181099 L 478.224429 153.181099 L 478.224429 129.252899 L 484.282229 129.252899 Z M 1049.346629 95.514099 L 1050.284229 95.537299 L 1051.190029 95.583699 L 1052.064129 95.653199 L 1052.906529 95.745999 L 1053.717229 95.861899 L 1054.496229 96.001099 L 1055.243529 96.163399 L 1055.959129 96.348899 L 1056.642929 96.557599 L 1057.295129 96.789499 L 1057.915529 97.044599 L 1058.504329 97.322899 L 1059.061329 97.624399 L 1059.586629 97.948999 L 1060.080229 98.296899 L 1060.315129 98.479499 L 1060.542529 98.668099 L 1060.975529 99.063699 L 1061.379729 99.483999 L 1061.755029 99.928899 L 1062.101429 100.398299 L 1062.419029 100.892399 L 1062.707729 101.411099 L 1062.967529 101.954399 L 1063.198429 102.522299 L 1063.400529 103.114899 L 1063.573729 103.731999 L 1063.718129 104.373699 L 1063.833629 105.040099 L 1063.920229 105.731099 L 1063.977929 106.446599 L 1064.006829 107.186799 L 1064.010429 107.566099 L 1064.006529 107.907999 L 1063.975829 108.575499 L 1063.914229 109.221499 L 1063.822029 109.845999 L 1063.698929 110.448899 L 1063.545129 111.030299 L 1063.360529 111.590199 L 1063.145229 112.128499 L 1062.899129 112.645299 L 1062.622229 113.140599 L 1062.314629 113.614399 L 1061.976229 114.066599 L 1061.607129 114.497199 L 1061.207229 114.906399 L 1060.776529 115.293999 L 1060.315129 115.659999 L 1059.822929 116.004599 L 1059.299929 116.327599 L 1058.746229 116.628999 L 1058.161729 116.908999 L 1057.546529 117.167399 L 1056.900529 117.404199 L 1056.223729 117.619599 L 1055.516229 117.813399 L 1054.777929 117.985599 L 1054.008929 118.136399 L 1053.209029 118.265599 L 1052.378529 118.373199 L 1051.517129 118.459399 L 1050.625029 118.523999 L 1049.702229 118.566999 L 1048.748529 118.588599 L 1048.260229 118.591299 L 1036.629329 118.591299 L 1036.629329 95.511199 L 1048.866029 95.511199 Z M 605.070129 95.514099 L 606.007629 95.537299 L 606.913529 95.583699 L 607.787629 95.653199 L 608.630029 95.745999 L 609.440729 95.861899 L 610.219729 96.001099 L 610.967029 96.163399 L 611.682529 96.348899 L 612.366429 96.557599 L 613.018529 96.789499 L 613.639029 97.044599 L 614.227729 97.322899 L 614.784829 97.624399 L 615.310129 97.948999 L 615.803729 98.296899 L 616.038629 98.479499 L 616.266029 98.668099 L 616.699029 99.063699 L 617.103229 99.483999 L 617.478529 99.928899 L 617.824929 100.398299 L 618.142429 100.892399 L 618.431129 101.411099 L 618.691029 101.954399 L 618.921929 102.522299 L 619.124029 103.114899 L 619.297229 103.731999 L 619.441629 104.373699 L 619.557029 105.040099 L 619.643629 105.731099 L 619.701429 106.446599 L 619.730229 107.186799 L 619.733929 107.566099 L 619.730029 107.907999 L 619.699229 108.575499 L 619.637729 109.221499 L 619.545429 109.845999 L 619.422429 110.448899 L 619.268629 111.030299 L 619.084029 111.590199 L 618.868729 112.128499 L 618.622629 112.645299 L 618.345729 113.140599 L 618.038129 113.614399 L 617.699729 114.066599 L 617.330629 114.497199 L 616.930729 114.906399 L 616.500029 115.293999 L 616.038629 115.659999 L 615.546429 116.004599 L 615.023429 116.327599 L 614.469729 116.628999 L 613.885229 116.908999 L 613.270029 117.167399 L 612.624029 117.404199 L 611.947229 117.619599 L 611.239729 117.813399 L 610.501429 117.985599 L 609.732329 118.136399 L 608.932529 118.265599 L 608.101929 118.373199 L 607.240629 118.459399 L 606.348529 118.523999 L 605.425629 118.566999 L 604.472029 118.588599 L 603.983729 118.591299 L 592.352829 118.591299 L 592.352829 95.511199 L 604.589429 95.511199 Z" transform="scale(1.000000,1.000000) translate(33.874071,113.220001)" fill="#000000" opacity="1.000000"></path>
    </g>
</svg>