<?xml version="1.0" encoding="UTF-8" standalone="no"?>
<!DOCTYPE svg PUBLIC "-//W3C//DTD SVG 1.1//EN" "http://www.w3.org/Graphics/SVG/1.1/DTD/svg11.dtd">
<svg width="100%" height="100%" viewBox="0 0 2100 700" version="1.1" xmlns="http://www.w3.org/2000/svg" xmlns:xlink="http://www.w3.org/1999/xlink" xml:space="preserve" xmlns:serif="http://www.serif.com/" style="fill-rule:evenodd;clip-rule:evenodd;stroke-linejoin:round;stroke-miterlimit:2;">
    <path d="M998.51,516.36C1016.68,468.43 1014.65,412.78 982.64,371.01C947.87,325.62 894.64,300.72 843.51,278.27C765.31,243.93 690.51,202.47 622.91,150C520.05,70.21 420.35,-18.77 280.39,3.46C168.67,21.21 74.17,106.9 31.39,210.2C-24.81,345.92 -8.31,501.62 103.3,602.14C150.06,644.25 237.53,671.26 298.07,681.99C456.38,710.05 619.07,706.08 773.72,664.69C838.67,647.3 909,627.41 958.24,578.9C975.98,561.173 989.713,539.845 998.51,516.36Z" style="fill:rgb(248,248,248);fill-rule:nonzero;"/>
    <path d="M489.39,699.93C513.56,685.524 533.987,665.608 549,641.81C602.47,557.13 576.18,444.51 490.27,390.25C404.36,335.99 291.36,360.65 237.89,445.33C190.52,520.33 205.75,617.25 269.55,676.13C279.55,678.44 289.12,680.4 298.12,681.99C361.272,693.239 425.247,699.24 489.39,699.93Z" style="fill:rgb(222,222,222);fill-opacity:0.15;fill-rule:nonzero;"/>
</svg>
