<?xml version="1.0" encoding="UTF-8" standalone="yes"?>
<!DOCTYPE svg PUBLIC "-//W3C//DTD SVG 1.1//EN" "http://www.w3.org/Graphics/SVG/1.1/DTD/svg11.dtd">

<svg width="960" height="150" viewBox="0 0 960 150" xmlns="http://www.w3.org/2000/svg" xmlns:xlink="http://www.w3.org/1999/xlink" version="1.1" baseProfile="full">
    <g transform="scale(1,-1) translate(0,-150)">
        <path d="M 57.859375 58.984375 Q 57.859375 42.062500 48.226562 33.062500 Q 38.593750 24.062500 20.406250 24.062500 L 1.000000 24.062500 L 1.000000 92.593750 L 22.515625 92.593750 Q 39.296875 92.593750 48.578125 83.734375 Q 57.859375 74.875000 57.859375 58.984375 Z M 42.765625 58.609375 Q 42.765625 80.687500 23.265625 80.687500 L 15.531250 80.687500 L 15.531250 36.062500 L 21.765625 36.062500 Q 42.765625 36.062500 42.765625 58.609375 Z M 92.640625 67.281250 Q 88.093750 67.281250 85.515625 64.398438 Q 82.937500 61.515625 82.562500 56.218750 L 102.625000 56.218750 Q 102.531250 61.515625 99.859375 64.398438 Q 97.187500 67.281250 92.640625 67.281250 Z M 94.656250 23.125000 Q 82.000000 23.125000 74.875000 30.109375 Q 67.750000 37.093750 67.750000 49.890625 Q 67.750000 63.062500 74.335938 70.257812 Q 80.921875 77.453125 92.546875 77.453125 Q 103.656250 77.453125 109.843750 71.125000 Q 116.031250 64.796875 116.031250 53.640625 L 116.031250 46.703125 L 82.234375 46.703125 Q 82.468750 40.609375 85.843750 37.187500 Q 89.218750 33.765625 95.312500 33.765625 Q 100.046875 33.765625 104.265625 34.750000 Q 108.484375 35.734375 113.078125 37.890625 L 113.078125 26.828125 Q 109.328125 24.953125 105.062500 24.039062 Q 100.796875 23.125000 94.656250 23.125000 Z M 156.906250 77.453125 Q 159.812500 77.453125 161.734375 77.031250 L 160.656250 63.625000 Q 158.921875 64.093750 156.437500 64.093750 Q 149.593750 64.093750 145.773438 60.578125 Q 141.953125 57.062500 141.953125 50.734375 L 141.953125 24.062500 L 127.656250 24.062500 L 127.656250 76.468750 L 138.484375 76.468750 L 140.593750 67.656250 L 141.296875 67.656250 Q 143.734375 72.062500 147.882812 74.757812 Q 152.031250 77.453125 156.906250 77.453125 Z M 224.968750 23.125000 Q 215.734375 23.125000 210.484375 29.828125 L 209.734375 29.828125 Q 210.484375 23.265625 210.484375 22.234375 L 210.484375 1.000000 L 196.187500 1.000000 L 196.187500 76.468750 L 207.812500 76.468750 L 209.828125 69.671875 L 210.484375 69.671875 Q 215.500000 77.453125 225.343750 77.453125 Q 234.625000 77.453125 239.875000 70.281250 Q 245.125000 63.109375 245.125000 50.359375 Q 245.125000 41.968750 242.664062 35.781250 Q 240.203125 29.593750 235.656250 26.359375 Q 231.109375 23.125000 224.968750 23.125000 Z M 220.750000 66.015625 Q 215.453125 66.015625 213.015625 62.757812 Q 210.578125 59.500000 210.484375 52.000000 L 210.484375 50.453125 Q 210.484375 42.015625 212.992188 38.359375 Q 215.500000 34.703125 220.937500 34.703125 Q 230.546875 34.703125 230.546875 50.546875 Q 230.546875 58.281250 228.179688 62.148438 Q 225.812500 66.015625 220.750000 66.015625 Z M 278.640625 67.281250 Q 274.093750 67.281250 271.515625 64.398438 Q 268.937500 61.515625 268.562500 56.218750 L 288.625000 56.218750 Q 288.531250 61.515625 285.859375 64.398438 Q 283.187500 67.281250 278.640625 67.281250 Z M 280.656250 23.125000 Q 268.000000 23.125000 260.875000 30.109375 Q 253.750000 37.093750 253.750000 49.890625 Q 253.750000 63.062500 260.335938 70.257812 Q 266.921875 77.453125 278.546875 77.453125 Q 289.656250 77.453125 295.843750 71.125000 Q 302.031250 64.796875 302.031250 53.640625 L 302.031250 46.703125 L 268.234375 46.703125 Q 268.468750 40.609375 271.843750 37.187500 Q 275.218750 33.765625 281.312500 33.765625 Q 286.046875 33.765625 290.265625 34.750000 Q 294.484375 35.734375 299.078125 37.890625 L 299.078125 26.828125 Q 295.328125 24.953125 291.062500 24.039062 Q 286.796875 23.125000 280.656250 23.125000 Z M 342.906250 77.453125 Q 345.812500 77.453125 347.734375 77.031250 L 346.656250 63.625000 Q 344.921875 64.093750 342.437500 64.093750 Q 335.593750 64.093750 331.773438 60.578125 Q 327.953125 57.062500 327.953125 50.734375 L 327.953125 24.062500 L 313.656250 24.062500 L 313.656250 76.468750 L 324.484375 76.468750 L 326.593750 67.656250 L 327.296875 67.656250 Q 329.734375 72.062500 333.882812 74.757812 Q 338.031250 77.453125 342.906250 77.453125 Z M 386.218750 65.734375 L 373.843750 65.734375 L 373.843750 24.062500 L 359.546875 24.062500 L 359.546875 65.734375 L 351.671875 65.734375 L 351.671875 72.625000 L 359.546875 76.468750 L 359.546875 80.312500 Q 359.546875 89.265625 363.953125 93.390625 Q 368.359375 97.515625 378.062500 97.515625 Q 385.468750 97.515625 391.234375 95.312500 L 387.578125 84.812500 Q 383.265625 86.171875 379.609375 86.171875 Q 376.562500 86.171875 375.203125 84.367188 Q 373.843750 82.562500 373.843750 79.750000 L 373.843750 76.468750 L 386.218750 76.468750 Z M 416.125000 67.281250 Q 411.578125 67.281250 409.000000 64.398438 Q 406.421875 61.515625 406.046875 56.218750 L 426.109375 56.218750 Q 426.015625 61.515625 423.343750 64.398438 Q 420.671875 67.281250 416.125000 67.281250 Z M 418.140625 23.125000 Q 405.484375 23.125000 398.359375 30.109375 Q 391.234375 37.093750 391.234375 49.890625 Q 391.234375 63.062500 397.820312 70.257812 Q 404.406250 77.453125 416.031250 77.453125 Q 427.140625 77.453125 433.328125 71.125000 Q 439.515625 64.796875 439.515625 53.640625 L 439.515625 46.703125 L 405.718750 46.703125 Q 405.953125 40.609375 409.328125 37.187500 Q 412.703125 33.765625 418.796875 33.765625 Q 423.531250 33.765625 427.750000 34.750000 Q 431.968750 35.734375 436.562500 37.890625 L 436.562500 26.828125 Q 432.812500 24.953125 428.546875 24.039062 Q 424.281250 23.125000 418.140625 23.125000 Z M 464.875000 52.562500 L 471.109375 60.531250 L 485.781250 76.468750 L 501.906250 76.468750 L 481.093750 53.734375 L 503.171875 24.062500 L 486.671875 24.062500 L 471.578125 45.296875 L 465.437500 40.375000 L 465.437500 24.062500 L 451.140625 24.062500 L 451.140625 97.000000 L 465.437500 97.000000 L 465.437500 64.468750 L 464.687500 52.562500 Z M 532.750000 34.515625 Q 536.500000 34.515625 541.750000 36.156250 L 541.750000 25.515625 Q 536.406250 23.125000 528.625000 23.125000 Q 520.046875 23.125000 516.132812 27.460938 Q 512.218750 31.796875 512.218750 40.468750 L 512.218750 65.734375 L 505.375000 65.734375 L 505.375000 71.781250 L 513.250000 76.562500 L 517.375000 87.625000 L 526.515625 87.625000 L 526.515625 76.468750 L 541.187500 76.468750 L 541.187500 65.734375 L 526.515625 65.734375 L 526.515625 40.468750 Q 526.515625 37.421875 528.226562 35.968750 Q 529.937500 34.515625 532.750000 34.515625 Z M 574.046875 67.281250 Q 569.500000 67.281250 566.921875 64.398438 Q 564.343750 61.515625 563.968750 56.218750 L 584.031250 56.218750 Q 583.937500 61.515625 581.265625 64.398438 Q 578.593750 67.281250 574.046875 67.281250 Z M 576.062500 23.125000 Q 563.406250 23.125000 556.281250 30.109375 Q 549.156250 37.093750 549.156250 49.890625 Q 549.156250 63.062500 555.742188 70.257812 Q 562.328125 77.453125 573.953125 77.453125 Q 585.062500 77.453125 591.250000 71.125000 Q 597.437500 64.796875 597.437500 53.640625 L 597.437500 46.703125 L 563.640625 46.703125 Q 563.875000 40.609375 567.250000 37.187500 Q 570.625000 33.765625 576.718750 33.765625 Q 581.453125 33.765625 585.671875 34.750000 Q 589.890625 35.734375 594.484375 37.890625 L 594.484375 26.828125 Q 590.734375 24.953125 586.468750 24.039062 Q 582.203125 23.125000 576.062500 23.125000 Z M 635.125000 92.593750 L 656.453125 92.593750 Q 671.031250 92.593750 677.617188 88.445312 Q 684.203125 84.296875 684.203125 75.250000 Q 684.203125 69.109375 681.320312 65.171875 Q 678.437500 61.234375 673.656250 60.437500 L 673.656250 59.968750 Q 680.171875 58.515625 683.054688 54.531250 Q 685.937500 50.546875 685.937500 43.937500 Q 685.937500 34.562500 679.164062 29.312500 Q 672.390625 24.062500 660.765625 24.062500 L 635.125000 24.062500 Z M 649.656250 65.453125 L 658.093750 65.453125 Q 664.000000 65.453125 666.648438 67.281250 Q 669.296875 69.109375 669.296875 73.328125 Q 669.296875 77.265625 666.414062 78.976562 Q 663.531250 80.687500 657.296875 80.687500 L 649.656250 80.687500 Z M 649.656250 53.921875 L 649.656250 36.062500 L 659.125000 36.062500 Q 665.125000 36.062500 667.984375 38.359375 Q 670.843750 40.656250 670.843750 45.390625 Q 670.843750 53.921875 658.656250 53.921875 Z M 709.890625 50.359375 Q 709.890625 42.578125 712.445312 38.593750 Q 715.000000 34.609375 720.765625 34.609375 Q 726.484375 34.609375 728.992188 38.570312 Q 731.500000 42.531250 731.500000 50.359375 Q 731.500000 58.140625 728.968750 62.031250 Q 726.437500 65.921875 720.671875 65.921875 Q 714.953125 65.921875 712.421875 62.054688 Q 709.890625 58.187500 709.890625 50.359375 Z M 746.125000 50.359375 Q 746.125000 37.562500 739.375000 30.343750 Q 732.625000 23.125000 720.578125 23.125000 Q 713.031250 23.125000 707.265625 26.429688 Q 701.500000 29.734375 698.406250 35.921875 Q 695.312500 42.109375 695.312500 50.359375 Q 695.312500 63.203125 702.015625 70.328125 Q 708.718750 77.453125 720.859375 77.453125 Q 728.406250 77.453125 734.171875 74.171875 Q 739.937500 70.890625 743.031250 64.750000 Q 746.125000 58.609375 746.125000 50.359375 Z M 774.531250 23.125000 Q 765.296875 23.125000 760.023438 30.296875 Q 754.750000 37.468750 754.750000 50.171875 Q 754.750000 63.062500 760.117188 70.257812 Q 765.484375 77.453125 774.906250 77.453125 Q 784.796875 77.453125 790.000000 69.765625 L 790.468750 69.765625 Q 789.390625 75.625000 789.390625 80.218750 L 789.390625 97.000000 L 803.734375 97.000000 L 803.734375 24.062500 L 792.765625 24.062500 L 790.000000 30.859375 L 789.390625 30.859375 Q 784.515625 23.125000 774.531250 23.125000 Z M 779.546875 34.515625 Q 785.031250 34.515625 787.585938 37.703125 Q 790.140625 40.890625 790.375000 48.531250 L 790.375000 50.078125 Q 790.375000 58.515625 787.773438 62.171875 Q 785.171875 65.828125 779.312500 65.828125 Q 774.531250 65.828125 771.882812 61.773438 Q 769.234375 57.718750 769.234375 49.984375 Q 769.234375 42.250000 771.906250 38.382812 Q 774.578125 34.515625 779.546875 34.515625 Z M 840.390625 67.281250 Q 835.843750 67.281250 833.265625 64.398438 Q 830.687500 61.515625 830.312500 56.218750 L 850.375000 56.218750 Q 850.281250 61.515625 847.609375 64.398438 Q 844.937500 67.281250 840.390625 67.281250 Z M 842.406250 23.125000 Q 829.750000 23.125000 822.625000 30.109375 Q 815.500000 37.093750 815.500000 49.890625 Q 815.500000 63.062500 822.085938 70.257812 Q 828.671875 77.453125 840.296875 77.453125 Q 851.406250 77.453125 857.593750 71.125000 Q 863.781250 64.796875 863.781250 53.640625 L 863.781250 46.703125 L 829.984375 46.703125 Q 830.218750 40.609375 833.593750 37.187500 Q 836.968750 33.765625 843.062500 33.765625 Q 847.796875 33.765625 852.015625 34.750000 Q 856.234375 35.734375 860.828125 37.890625 L 860.828125 26.828125 Q 857.078125 24.953125 852.812500 24.039062 Q 848.546875 23.125000 842.406250 23.125000 Z M 923.781250 24.062500 L 909.484375 24.062500 L 909.484375 54.671875 Q 909.484375 60.343750 907.468750 63.179688 Q 905.453125 66.015625 901.046875 66.015625 Q 895.046875 66.015625 892.375000 62.007812 Q 889.703125 58.000000 889.703125 48.718750 L 889.703125 24.062500 L 875.406250 24.062500 L 875.406250 76.468750 L 886.328125 76.468750 L 888.250000 69.765625 L 889.046875 69.765625 Q 891.437500 73.562500 895.632812 75.507812 Q 899.828125 77.453125 905.171875 77.453125 Q 914.312500 77.453125 919.046875 72.507812 Q 923.781250 67.562500 923.781250 58.234375 Z M 936.484375 30.765625 Q 936.484375 34.703125 938.593750 36.718750 Q 940.703125 38.734375 944.734375 38.734375 Q 948.625000 38.734375 950.757812 36.671875 Q 952.890625 34.609375 952.890625 30.765625 Q 952.890625 27.062500 950.734375 24.929688 Q 948.578125 22.796875 944.734375 22.796875 Q 940.796875 22.796875 938.640625 24.882812 Q 936.484375 26.968750 936.484375 30.765625 Z" transform="scale(1.000000,1.000000) translate(3.051197,25.742188)" fill="#f3f3f3" opacity="1.000000"></path>
    </g>
</svg>